<svg width="699" height="700" viewBox="0 0 699 700" fill="none" xmlns="http://www.w3.org/2000/svg">
<g clip-path="url(#clip0_23_2)">
<path d="M0.7071 350L350 0.7071L699.293 350L350 699.293L0.7071 350Z" fill="url(#paint0_linear_23_2)" stroke="black"/>
<path d="M264.074 262.144C263.498 262.144 262.886 262.096 262.238 262C261.59 261.88 260.978 261.652 260.402 261.316C259.826 260.98 259.358 260.476 258.998 259.804C258.638 259.108 258.458 258.172 258.458 256.996V240.832C258.458 239.8 258.602 238.948 258.89 238.276C259.202 237.58 259.61 237.04 260.114 236.656C260.618 236.248 261.182 235.96 261.806 235.792C262.43 235.6 263.054 235.504 263.678 235.504C265.166 235.528 266.546 235.564 267.818 235.612C269.09 235.636 270.29 235.672 271.418 235.72C272.57 235.744 273.686 235.78 274.766 235.828V238.132H264.398C263.462 238.132 262.718 238.384 262.166 238.888C261.614 239.392 261.338 240.196 261.338 241.3V247.564L273.182 247.744V249.94L261.338 250.12V256.348C261.338 257.236 261.482 257.908 261.77 258.364C262.082 258.82 262.49 259.12 262.994 259.264C263.498 259.408 264.014 259.48 264.542 259.48H274.766V261.784C273.662 261.856 272.498 261.916 271.274 261.964C270.074 262.012 268.862 262.048 267.638 262.072C266.438 262.096 265.25 262.12 264.074 262.144ZM279.586 262V235.504H290.026C290.89 235.504 291.73 235.612 292.546 235.828C293.362 236.02 294.094 236.392 294.742 236.944C295.414 237.496 295.942 238.288 296.326 239.32C296.71 240.328 296.902 241.66 296.902 243.316C296.902 244.756 296.746 245.944 296.434 246.88C296.122 247.792 295.714 248.524 295.21 249.076C294.706 249.604 294.154 250 293.554 250.264C292.978 250.504 292.414 250.672 291.862 250.768L297.298 262H294.382L289.234 251.164C288.85 251.164 288.37 251.152 287.794 251.128C287.218 251.104 286.606 251.092 285.958 251.092C285.31 251.092 284.674 251.08 284.05 251.056C283.45 251.032 282.922 251.02 282.466 251.02V262H279.586ZM282.466 248.824H289.594C290.218 248.824 290.794 248.752 291.322 248.608C291.85 248.464 292.318 248.2 292.726 247.816C293.134 247.408 293.458 246.844 293.698 246.124C293.938 245.404 294.058 244.468 294.058 243.316C294.058 242.212 293.938 241.324 293.698 240.652C293.458 239.956 293.122 239.428 292.69 239.068C292.282 238.684 291.814 238.432 291.286 238.312C290.758 238.168 290.194 238.096 289.594 238.096H282.466V248.824ZM301.489 262V235.504H311.929C312.793 235.504 313.633 235.612 314.449 235.828C315.265 236.02 315.997 236.392 316.645 236.944C317.317 237.496 317.845 238.288 318.229 239.32C318.613 240.328 318.805 241.66 318.805 243.316C318.805 244.756 318.649 245.944 318.337 246.88C318.025 247.792 317.617 248.524 317.113 249.076C316.609 249.604 316.057 250 315.457 250.264C314.881 250.504 314.317 250.672 313.765 250.768L319.201 262H316.285L311.137 251.164C310.753 251.164 310.273 251.152 309.697 251.128C309.121 251.104 308.509 251.092 307.861 251.092C307.213 251.092 306.577 251.08 305.953 251.056C305.353 251.032 304.825 251.02 304.369 251.02V262H301.489ZM304.369 248.824H311.497C312.121 248.824 312.697 248.752 313.225 248.608C313.753 248.464 314.221 248.2 314.629 247.816C315.037 247.408 315.361 246.844 315.601 246.124C315.841 245.404 315.961 244.468 315.961 243.316C315.961 242.212 315.841 241.324 315.601 240.652C315.361 239.956 315.025 239.428 314.593 239.068C314.185 238.684 313.717 238.432 313.189 238.312C312.661 238.168 312.097 238.096 311.497 238.096H304.369V248.824ZM332.967 262.216C331.263 262.216 329.763 262.06 328.467 261.748C327.195 261.412 326.127 260.788 325.263 259.876C324.423 258.964 323.787 257.62 323.355 255.844C322.947 254.068 322.743 251.74 322.743 248.86C322.743 245.98 322.959 243.652 323.391 241.876C323.823 240.076 324.471 238.708 325.335 237.772C326.199 236.812 327.267 236.164 328.539 235.828C329.811 235.468 331.287 235.288 332.967 235.288C334.695 235.288 336.195 235.468 337.467 235.828C338.763 236.164 339.831 236.812 340.671 237.772C341.535 238.708 342.171 240.076 342.579 241.876C342.987 243.652 343.191 245.98 343.191 248.86C343.191 251.74 342.975 254.068 342.543 255.844C342.135 257.62 341.499 258.964 340.635 259.876C339.795 260.788 338.739 261.412 337.467 261.748C336.195 262.06 334.695 262.216 332.967 262.216ZM332.967 259.66C334.311 259.66 335.451 259.528 336.387 259.264C337.323 259 338.079 258.496 338.655 257.752C339.255 256.984 339.687 255.892 339.951 254.476C340.215 253.06 340.347 251.188 340.347 248.86C340.347 246.436 340.203 244.492 339.915 243.028C339.651 241.564 339.219 240.46 338.619 239.716C338.043 238.972 337.287 238.48 336.351 238.24C335.439 238 334.311 237.88 332.967 237.88C331.719 237.88 330.627 238 329.691 238.24C328.779 238.48 328.011 238.972 327.387 239.716C326.787 240.46 326.331 241.564 326.019 243.028C325.731 244.492 325.587 246.436 325.587 248.86C325.587 251.188 325.707 253.06 325.947 254.476C326.211 255.892 326.631 256.984 327.207 257.752C327.783 258.496 328.539 259 329.475 259.264C330.435 259.528 331.599 259.66 332.967 259.66ZM348.071 262V235.504H358.511C359.375 235.504 360.215 235.612 361.031 235.828C361.847 236.02 362.579 236.392 363.227 236.944C363.899 237.496 364.427 238.288 364.811 239.32C365.195 240.328 365.387 241.66 365.387 243.316C365.387 244.756 365.231 245.944 364.919 246.88C364.607 247.792 364.199 248.524 363.695 249.076C363.191 249.604 362.639 250 362.039 250.264C361.463 250.504 360.899 250.672 360.347 250.768L365.783 262H362.867L357.719 251.164C357.335 251.164 356.855 251.152 356.279 251.128C355.703 251.104 355.091 251.092 354.443 251.092C353.795 251.092 353.159 251.08 352.535 251.056C351.935 251.032 351.407 251.02 350.951 251.02V262H348.071ZM350.951 248.824H358.079C358.703 248.824 359.279 248.752 359.807 248.608C360.335 248.464 360.803 248.2 361.211 247.816C361.619 247.408 361.943 246.844 362.183 246.124C362.423 245.404 362.543 244.468 362.543 243.316C362.543 242.212 362.423 241.324 362.183 240.652C361.943 239.956 361.607 239.428 361.175 239.068C360.767 238.684 360.299 238.432 359.771 238.312C359.243 238.168 358.679 238.096 358.079 238.096H350.951V248.824ZM390.98 261.964V255.232H378.488L377.84 253.684L387.812 235.504H390.764L381.152 252.784H390.98V245.728L391.592 243.28H393.824V252.784H397.46V254.764L393.824 255.232V261.964H390.98ZM407.638 262.072C406.366 262.072 405.226 261.856 404.218 261.424C403.234 260.968 402.454 260.284 401.878 259.372C401.326 258.436 401.05 257.236 401.05 255.772V241.732C401.05 240.316 401.326 239.14 401.878 238.204C402.454 237.244 403.234 236.524 404.218 236.044C405.226 235.54 406.366 235.288 407.638 235.288H412.786C414.274 235.288 415.486 235.564 416.422 236.116C417.358 236.644 418.042 237.388 418.474 238.348C418.93 239.308 419.158 240.436 419.158 241.732V255.772C419.158 257.956 418.57 259.552 417.394 260.56C416.242 261.568 414.706 262.072 412.786 262.072H407.638ZM408.178 259.516H412.138C413.602 259.516 414.658 259.156 415.306 258.436C415.954 257.692 416.278 256.684 416.278 255.412V241.948C416.278 240.58 415.93 239.56 415.234 238.888C414.562 238.216 413.566 237.88 412.246 237.88H408.106C406.81 237.88 405.79 238.24 405.046 238.96C404.302 239.656 403.93 240.652 403.93 241.948V255.412C403.93 256.78 404.302 257.812 405.046 258.508C405.814 259.18 406.858 259.516 408.178 259.516ZM435.98 261.964V255.232H423.488L422.84 253.684L432.812 235.504H435.764L426.152 252.784H435.98V245.728L436.592 243.28H438.824V252.784H442.46V254.764L438.824 255.232V261.964H435.98Z" fill="black"/>
<path d="M182.396 436V412.096H174.224V409.504H193.448V412.096H185.276V436H182.396ZM196.775 436V408.532H199.619V418.9C200.507 418.252 201.563 417.688 202.787 417.208C204.035 416.704 205.331 416.452 206.675 416.452C208.019 416.452 209.123 416.74 209.987 417.316C210.875 417.892 211.523 418.672 211.931 419.656C212.363 420.64 212.579 421.732 212.579 422.932V436H209.735V423.22C209.735 422.404 209.567 421.684 209.231 421.06C208.919 420.436 208.463 419.944 207.863 419.584C207.263 419.224 206.543 419.044 205.703 419.044C204.911 419.044 204.179 419.128 203.507 419.296C202.835 419.44 202.187 419.656 201.563 419.944C200.939 420.208 200.291 420.532 199.619 420.916V436H196.775ZM225.283 436.216C223.267 436.216 221.671 435.916 220.495 435.316C219.343 434.716 218.515 433.696 218.011 432.256C217.507 430.816 217.255 428.848 217.255 426.352C217.255 423.808 217.507 421.828 218.011 420.412C218.539 418.972 219.391 417.964 220.567 417.388C221.743 416.812 223.327 416.524 225.319 416.524C227.023 416.524 228.403 416.716 229.459 417.1C230.539 417.484 231.331 418.144 231.835 419.08C232.363 419.992 232.627 421.264 232.627 422.896C232.627 424.024 232.399 424.936 231.943 425.632C231.511 426.304 230.875 426.796 230.035 427.108C229.219 427.396 228.247 427.54 227.119 427.54H220.099C220.123 429.1 220.291 430.36 220.603 431.32C220.915 432.256 221.479 432.94 222.295 433.372C223.135 433.78 224.359 433.984 225.967 433.984H232.159V435.712C231.055 435.856 229.975 435.976 228.919 436.072C227.863 436.168 226.651 436.216 225.283 436.216ZM220.063 425.668H226.903C227.983 425.668 228.775 425.476 229.279 425.092C229.807 424.684 230.071 423.964 230.071 422.932C230.071 421.828 229.903 420.976 229.567 420.376C229.255 419.752 228.751 419.32 228.055 419.08C227.383 418.816 226.471 418.684 225.319 418.684C223.975 418.684 222.919 418.888 222.151 419.296C221.383 419.68 220.843 420.376 220.531 421.384C220.219 422.392 220.063 423.82 220.063 425.668ZM247.119 436V416.776H249.279L249.963 420.124C250.827 419.092 251.787 418.24 252.843 417.568C253.923 416.896 255.159 416.56 256.551 416.56C256.887 416.56 257.199 416.572 257.487 416.596C257.799 416.62 258.087 416.668 258.351 416.74V419.656C258.039 419.608 257.703 419.572 257.343 419.548C256.983 419.5 256.623 419.476 256.263 419.476C255.375 419.476 254.583 419.584 253.887 419.8C253.191 420.016 252.531 420.34 251.907 420.772C251.283 421.204 250.635 421.732 249.963 422.356V436H247.119ZM269.299 436.216C267.283 436.216 265.687 435.916 264.511 435.316C263.359 434.716 262.531 433.696 262.027 432.256C261.523 430.816 261.271 428.848 261.271 426.352C261.271 423.808 261.523 421.828 262.027 420.412C262.555 418.972 263.407 417.964 264.583 417.388C265.759 416.812 267.343 416.524 269.335 416.524C271.039 416.524 272.419 416.716 273.475 417.1C274.555 417.484 275.347 418.144 275.851 419.08C276.379 419.992 276.643 421.264 276.643 422.896C276.643 424.024 276.415 424.936 275.959 425.632C275.527 426.304 274.891 426.796 274.051 427.108C273.235 427.396 272.263 427.54 271.135 427.54H264.115C264.139 429.1 264.307 430.36 264.619 431.32C264.931 432.256 265.495 432.94 266.311 433.372C267.151 433.78 268.375 433.984 269.983 433.984H276.175V435.712C275.071 435.856 273.991 435.976 272.935 436.072C271.879 436.168 270.667 436.216 269.299 436.216ZM264.079 425.668H270.919C271.999 425.668 272.791 425.476 273.295 425.092C273.823 424.684 274.087 423.964 274.087 422.932C274.087 421.828 273.919 420.976 273.583 420.376C273.271 419.752 272.767 419.32 272.071 419.08C271.399 418.816 270.487 418.684 269.335 418.684C267.991 418.684 266.935 418.888 266.167 419.296C265.399 419.68 264.859 420.376 264.547 421.384C264.235 422.392 264.079 423.82 264.079 425.668ZM288.055 436.216C287.575 436.216 286.987 436.204 286.291 436.18C285.595 436.156 284.863 436.12 284.095 436.072C283.351 436.024 282.667 435.976 282.043 435.928C281.443 435.856 280.975 435.784 280.639 435.712V433.984H288.523C289.315 433.984 289.999 433.924 290.575 433.804C291.151 433.684 291.595 433.42 291.907 433.012C292.243 432.604 292.411 431.992 292.411 431.176V430.312C292.411 429.472 292.135 428.824 291.583 428.368C291.031 427.888 290.143 427.648 288.919 427.648H286.219C285.091 427.648 284.083 427.504 283.195 427.216C282.331 426.928 281.659 426.436 281.179 425.74C280.699 425.044 280.459 424.084 280.459 422.86V421.852C280.459 420.652 280.687 419.668 281.143 418.9C281.623 418.132 282.355 417.556 283.339 417.172C284.347 416.788 285.643 416.596 287.227 416.596C287.899 416.596 288.667 416.62 289.531 416.668C290.419 416.716 291.283 416.788 292.123 416.884C292.963 416.956 293.647 417.04 294.175 417.136V418.864H286.759C285.535 418.864 284.587 419.068 283.915 419.476C283.267 419.884 282.943 420.676 282.943 421.852V422.644C282.943 423.388 283.099 423.952 283.411 424.336C283.723 424.696 284.155 424.936 284.707 425.056C285.283 425.176 285.943 425.236 286.687 425.236H289.423C291.175 425.236 292.531 425.644 293.491 426.46C294.451 427.276 294.931 428.452 294.931 429.988V431.32C294.931 432.616 294.631 433.624 294.031 434.344C293.455 435.04 292.651 435.532 291.619 435.82C290.611 436.084 289.423 436.216 288.055 436.216ZM307.063 436.216C305.671 436.216 304.447 436.072 303.391 435.784C302.359 435.496 301.495 434.992 300.799 434.272C300.103 433.552 299.587 432.556 299.251 431.284C298.915 429.988 298.747 428.344 298.747 426.352C298.747 424.336 298.915 422.692 299.251 421.42C299.587 420.124 300.103 419.128 300.799 418.432C301.495 417.712 302.359 417.22 303.391 416.956C304.447 416.668 305.671 416.524 307.063 416.524C308.455 416.524 309.667 416.668 310.699 416.956C311.755 417.244 312.631 417.748 313.327 418.468C314.023 419.164 314.539 420.16 314.875 421.456C315.235 422.728 315.415 424.36 315.415 426.352C315.415 428.368 315.235 430.024 314.875 431.32C314.539 432.592 314.023 433.588 313.327 434.308C312.655 435.004 311.791 435.496 310.735 435.784C309.679 436.072 308.455 436.216 307.063 436.216ZM307.063 433.876C307.951 433.876 308.731 433.792 309.403 433.624C310.099 433.456 310.675 433.12 311.131 432.616C311.587 432.112 311.935 431.356 312.175 430.348C312.415 429.34 312.535 428.008 312.535 426.352C312.535 424.672 312.415 423.34 312.175 422.356C311.935 421.372 311.587 420.628 311.131 420.124C310.675 419.62 310.099 419.284 309.403 419.116C308.731 418.948 307.951 418.864 307.063 418.864C306.151 418.864 305.359 418.948 304.687 419.116C304.015 419.284 303.451 419.62 302.995 420.124C302.539 420.628 302.191 421.372 301.951 422.356C301.711 423.34 301.591 424.672 301.591 426.352C301.591 428.008 301.711 429.34 301.951 430.348C302.191 431.356 302.539 432.112 302.995 432.616C303.451 433.12 304.015 433.456 304.687 433.624C305.359 433.792 306.151 433.876 307.063 433.876ZM325.933 436.216C324.085 436.216 322.657 435.736 321.649 434.776C320.665 433.816 320.173 432.328 320.173 430.312V416.776H323.017V429.592C323.017 431.2 323.377 432.292 324.097 432.868C324.841 433.42 325.873 433.696 327.193 433.696C328.321 433.696 329.353 433.54 330.289 433.228C331.225 432.892 332.185 432.436 333.169 431.86V416.776H336.013V436H333.781L333.169 433.876C332.185 434.5 331.069 435.052 329.821 435.532C328.597 435.988 327.301 436.216 325.933 436.216ZM341.373 436V416.776H343.533L344.217 420.124C345.081 419.092 346.041 418.24 347.097 417.568C348.177 416.896 349.413 416.56 350.805 416.56C351.141 416.56 351.453 416.572 351.741 416.596C352.053 416.62 352.341 416.668 352.605 416.74V419.656C352.293 419.608 351.957 419.572 351.597 419.548C351.237 419.5 350.877 419.476 350.517 419.476C349.629 419.476 348.837 419.584 348.141 419.8C347.445 420.016 346.785 420.34 346.161 420.772C345.537 421.204 344.889 421.732 344.217 422.356V436H341.373ZM363.193 436.216C362.113 436.216 361.105 436.072 360.169 435.784C359.233 435.496 358.417 434.992 357.721 434.272C357.025 433.552 356.485 432.556 356.101 431.284C355.717 430.012 355.525 428.392 355.525 426.424C355.525 424.432 355.705 422.8 356.065 421.528C356.425 420.232 356.941 419.224 357.613 418.504C358.285 417.784 359.101 417.28 360.061 416.992C361.021 416.704 362.089 416.56 363.265 416.56C364.225 416.56 365.269 416.608 366.397 416.704C367.525 416.776 368.605 416.896 369.637 417.064V418.756H364.021C362.797 418.756 361.765 418.96 360.925 419.368C360.085 419.776 359.449 420.544 359.017 421.672C358.585 422.776 358.369 424.384 358.369 426.496C358.369 428.536 358.597 430.096 359.053 431.176C359.509 432.256 360.157 433 360.997 433.408C361.837 433.792 362.857 433.984 364.057 433.984H369.925V435.64C369.373 435.736 368.725 435.832 367.981 435.928C367.261 436.024 366.493 436.096 365.677 436.144C364.861 436.192 364.033 436.216 363.193 436.216ZM381.201 436.216C379.185 436.216 377.589 435.916 376.413 435.316C375.261 434.716 374.433 433.696 373.929 432.256C373.425 430.816 373.173 428.848 373.173 426.352C373.173 423.808 373.425 421.828 373.929 420.412C374.457 418.972 375.309 417.964 376.485 417.388C377.661 416.812 379.245 416.524 381.237 416.524C382.941 416.524 384.321 416.716 385.377 417.1C386.457 417.484 387.249 418.144 387.753 419.08C388.281 419.992 388.545 421.264 388.545 422.896C388.545 424.024 388.317 424.936 387.861 425.632C387.429 426.304 386.793 426.796 385.953 427.108C385.137 427.396 384.165 427.54 383.037 427.54H376.017C376.041 429.1 376.209 430.36 376.521 431.32C376.833 432.256 377.397 432.94 378.213 433.372C379.053 433.78 380.277 433.984 381.885 433.984H388.077V435.712C386.973 435.856 385.893 435.976 384.837 436.072C383.781 436.168 382.569 436.216 381.201 436.216ZM375.981 425.668H382.821C383.901 425.668 384.693 425.476 385.197 425.092C385.725 424.684 385.989 423.964 385.989 422.932C385.989 421.828 385.821 420.976 385.485 420.376C385.173 419.752 384.669 419.32 383.973 419.08C383.301 418.816 382.389 418.684 381.237 418.684C379.893 418.684 378.837 418.888 378.069 419.296C377.301 419.68 376.761 420.376 376.449 421.384C376.137 422.392 375.981 423.82 375.981 425.668ZM408.185 444.532L410.633 436C410.033 435.976 409.409 435.832 408.761 435.568C408.113 435.304 407.513 434.848 406.961 434.2C406.409 433.552 405.953 432.652 405.593 431.5L400.985 416.776H403.973L408.257 430.888C408.521 431.632 408.797 432.184 409.085 432.544C409.397 432.904 409.709 433.156 410.021 433.3C410.333 433.444 410.597 433.528 410.813 433.552C411.053 433.552 411.197 433.552 411.245 433.552L416.177 416.776H419.093L412.073 440.968L410.417 444.532H408.185ZM430.145 436.216C428.753 436.216 427.529 436.072 426.473 435.784C425.441 435.496 424.577 434.992 423.881 434.272C423.185 433.552 422.669 432.556 422.333 431.284C421.997 429.988 421.829 428.344 421.829 426.352C421.829 424.336 421.997 422.692 422.333 421.42C422.669 420.124 423.185 419.128 423.881 418.432C424.577 417.712 425.441 417.22 426.473 416.956C427.529 416.668 428.753 416.524 430.145 416.524C431.537 416.524 432.749 416.668 433.781 416.956C434.837 417.244 435.713 417.748 436.409 418.468C437.105 419.164 437.621 420.16 437.957 421.456C438.317 422.728 438.497 424.36 438.497 426.352C438.497 428.368 438.317 430.024 437.957 431.32C437.621 432.592 437.105 433.588 436.409 434.308C435.737 435.004 434.873 435.496 433.817 435.784C432.761 436.072 431.537 436.216 430.145 436.216ZM430.145 433.876C431.033 433.876 431.813 433.792 432.485 433.624C433.181 433.456 433.757 433.12 434.213 432.616C434.669 432.112 435.017 431.356 435.257 430.348C435.497 429.34 435.617 428.008 435.617 426.352C435.617 424.672 435.497 423.34 435.257 422.356C435.017 421.372 434.669 420.628 434.213 420.124C433.757 419.62 433.181 419.284 432.485 419.116C431.813 418.948 431.033 418.864 430.145 418.864C429.233 418.864 428.441 418.948 427.769 419.116C427.097 419.284 426.533 419.62 426.077 420.124C425.621 420.628 425.273 421.372 425.033 422.356C424.793 423.34 424.673 424.672 424.673 426.352C424.673 428.008 424.793 429.34 425.033 430.348C425.273 431.356 425.621 432.112 426.077 432.616C426.533 433.12 427.097 433.456 427.769 433.624C428.441 433.792 429.233 433.876 430.145 433.876ZM449.015 436.216C447.167 436.216 445.739 435.736 444.731 434.776C443.747 433.816 443.255 432.328 443.255 430.312V416.776H446.099V429.592C446.099 431.2 446.459 432.292 447.179 432.868C447.923 433.42 448.955 433.696 450.275 433.696C451.403 433.696 452.435 433.54 453.371 433.228C454.307 432.892 455.267 432.436 456.251 431.86V416.776H459.095V436H456.863L456.251 433.876C455.267 434.5 454.151 435.052 452.903 435.532C451.679 435.988 450.383 436.216 449.015 436.216ZM477.902 436.216C476.486 436.216 475.322 435.796 474.41 434.956C473.498 434.116 473.042 432.928 473.042 431.392V430.024C473.042 428.512 473.534 427.288 474.518 426.352C475.526 425.416 477.038 424.948 479.054 424.948H485.57V422.572C485.57 421.78 485.426 421.108 485.138 420.556C484.874 419.98 484.382 419.536 483.662 419.224C482.966 418.912 481.946 418.756 480.602 418.756H474.626V417.064C475.466 416.92 476.438 416.788 477.542 416.668C478.67 416.548 479.99 416.488 481.502 416.488C483.062 416.464 484.358 416.656 485.39 417.064C486.422 417.472 487.178 418.12 487.658 419.008C488.162 419.872 488.414 421.012 488.414 422.428V436H486.218L485.678 433.804C485.582 433.9 485.282 434.068 484.778 434.308C484.298 434.548 483.674 434.824 482.906 435.136C482.162 435.424 481.346 435.676 480.458 435.892C479.594 436.108 478.742 436.216 477.902 436.216ZM479.09 434.092C479.522 434.116 480.014 434.068 480.566 433.948C481.118 433.828 481.682 433.696 482.258 433.552C482.834 433.384 483.362 433.216 483.842 433.048C484.346 432.88 484.754 432.736 485.066 432.616C485.378 432.496 485.546 432.436 485.57 432.436V426.388L479.702 426.64C478.334 426.688 477.35 427.024 476.75 427.648C476.174 428.272 475.886 429.076 475.886 430.06V430.924C475.886 431.692 476.042 432.316 476.354 432.796C476.69 433.252 477.098 433.576 477.578 433.768C478.082 433.96 478.586 434.068 479.09 434.092ZM493.775 436V416.776H495.935L496.619 420.124C497.483 419.092 498.443 418.24 499.499 417.568C500.579 416.896 501.815 416.56 503.207 416.56C503.543 416.56 503.855 416.572 504.143 416.596C504.455 416.62 504.743 416.668 505.007 416.74V419.656C504.695 419.608 504.359 419.572 503.999 419.548C503.639 419.5 503.279 419.476 502.919 419.476C502.031 419.476 501.239 419.584 500.543 419.8C499.847 420.016 499.187 420.34 498.563 420.772C497.939 421.204 497.291 421.732 496.619 422.356V436H493.775ZM515.955 436.216C513.939 436.216 512.343 435.916 511.167 435.316C510.015 434.716 509.187 433.696 508.683 432.256C508.179 430.816 507.927 428.848 507.927 426.352C507.927 423.808 508.179 421.828 508.683 420.412C509.211 418.972 510.063 417.964 511.239 417.388C512.415 416.812 513.999 416.524 515.991 416.524C517.695 416.524 519.075 416.716 520.131 417.1C521.211 417.484 522.003 418.144 522.507 419.08C523.035 419.992 523.299 421.264 523.299 422.896C523.299 424.024 523.071 424.936 522.615 425.632C522.183 426.304 521.547 426.796 520.707 427.108C519.891 427.396 518.919 427.54 517.791 427.54H510.771C510.795 429.1 510.963 430.36 511.275 431.32C511.587 432.256 512.151 432.94 512.967 433.372C513.807 433.78 515.031 433.984 516.639 433.984H522.831V435.712C521.727 435.856 520.647 435.976 519.591 436.072C518.535 436.168 517.323 436.216 515.955 436.216ZM510.735 425.668H517.575C518.655 425.668 519.447 425.476 519.951 425.092C520.479 424.684 520.743 423.964 520.743 422.932C520.743 421.828 520.575 420.976 520.239 420.376C519.927 419.752 519.423 419.32 518.727 419.08C518.055 418.816 517.143 418.684 515.991 418.684C514.647 418.684 513.591 418.888 512.823 419.296C512.055 419.68 511.515 420.376 511.203 421.384C510.891 422.392 510.735 423.82 510.735 425.668ZM190.934 484.036C189.83 484.036 188.906 483.844 188.162 483.46C187.418 483.052 186.854 482.404 186.47 481.516C186.086 480.604 185.894 479.38 185.894 477.844V456.532H188.738V477.484C188.738 478.636 188.846 479.512 189.062 480.112C189.278 480.688 189.59 481.096 189.998 481.336C190.406 481.552 190.886 481.696 191.438 481.768L193.382 481.984V484.036H190.934ZM204.108 484.216C202.716 484.216 201.492 484.072 200.436 483.784C199.404 483.496 198.54 482.992 197.844 482.272C197.148 481.552 196.632 480.556 196.296 479.284C195.96 477.988 195.792 476.344 195.792 474.352C195.792 472.336 195.96 470.692 196.296 469.42C196.632 468.124 197.148 467.128 197.844 466.432C198.54 465.712 199.404 465.22 200.436 464.956C201.492 464.668 202.716 464.524 204.108 464.524C205.5 464.524 206.712 464.668 207.744 464.956C208.8 465.244 209.676 465.748 210.372 466.468C211.068 467.164 211.584 468.16 211.92 469.456C212.28 470.728 212.46 472.36 212.46 474.352C212.46 476.368 212.28 478.024 211.92 479.32C211.584 480.592 211.068 481.588 210.372 482.308C209.7 483.004 208.836 483.496 207.78 483.784C206.724 484.072 205.5 484.216 204.108 484.216ZM204.108 481.876C204.996 481.876 205.776 481.792 206.448 481.624C207.144 481.456 207.72 481.12 208.176 480.616C208.632 480.112 208.98 479.356 209.22 478.348C209.46 477.34 209.58 476.008 209.58 474.352C209.58 472.672 209.46 471.34 209.22 470.356C208.98 469.372 208.632 468.628 208.176 468.124C207.72 467.62 207.144 467.284 206.448 467.116C205.776 466.948 204.996 466.864 204.108 466.864C203.196 466.864 202.404 466.948 201.732 467.116C201.06 467.284 200.496 467.62 200.04 468.124C199.584 468.628 199.236 469.372 198.996 470.356C198.756 471.34 198.636 472.672 198.636 474.352C198.636 476.008 198.756 477.34 198.996 478.348C199.236 479.356 199.584 480.112 200.04 480.616C200.496 481.12 201.06 481.456 201.732 481.624C202.404 481.792 203.196 481.876 204.108 481.876ZM224.886 484.216C223.494 484.216 222.27 484.072 221.214 483.784C220.182 483.496 219.318 482.992 218.622 482.272C217.926 481.552 217.41 480.556 217.074 479.284C216.738 477.988 216.57 476.344 216.57 474.352C216.57 472.336 216.738 470.692 217.074 469.42C217.41 468.124 217.926 467.128 218.622 466.432C219.318 465.712 220.182 465.22 221.214 464.956C222.27 464.668 223.494 464.524 224.886 464.524C226.278 464.524 227.49 464.668 228.522 464.956C229.578 465.244 230.454 465.748 231.15 466.468C231.846 467.164 232.362 468.16 232.698 469.456C233.058 470.728 233.238 472.36 233.238 474.352C233.238 476.368 233.058 478.024 232.698 479.32C232.362 480.592 231.846 481.588 231.15 482.308C230.478 483.004 229.614 483.496 228.558 483.784C227.502 484.072 226.278 484.216 224.886 484.216ZM224.886 481.876C225.774 481.876 226.554 481.792 227.226 481.624C227.922 481.456 228.498 481.12 228.954 480.616C229.41 480.112 229.758 479.356 229.998 478.348C230.238 477.34 230.358 476.008 230.358 474.352C230.358 472.672 230.238 471.34 229.998 470.356C229.758 469.372 229.41 468.628 228.954 468.124C228.498 467.62 227.922 467.284 227.226 467.116C226.554 466.948 225.774 466.864 224.886 466.864C223.974 466.864 223.182 466.948 222.51 467.116C221.838 467.284 221.274 467.62 220.818 468.124C220.362 468.628 220.014 469.372 219.774 470.356C219.534 471.34 219.414 472.672 219.414 474.352C219.414 476.008 219.534 477.34 219.774 478.348C220.014 479.356 220.362 480.112 220.818 480.616C221.274 481.12 221.838 481.456 222.51 481.624C223.182 481.792 223.974 481.876 224.886 481.876ZM238.031 484V456.532H240.875V472.444H243.611L249.479 464.776H252.503L245.735 473.74L252.935 484H249.911L243.503 475H240.875V484H238.031ZM256.674 461.356C256.29 461.356 256.098 461.164 256.098 460.78V457.972C256.098 457.588 256.29 457.396 256.674 457.396H258.69C258.882 457.396 259.014 457.456 259.086 457.576C259.182 457.672 259.23 457.804 259.23 457.972V460.78C259.23 461.164 259.05 461.356 258.69 461.356H256.674ZM256.242 484V464.776H259.086V484H256.242ZM264.574 484V464.776H266.806L267.418 466.9C268.33 466.252 269.398 465.688 270.622 465.208C271.846 464.704 273.118 464.452 274.438 464.452C275.854 464.452 276.994 464.752 277.858 465.352C278.722 465.952 279.358 466.744 279.766 467.728C280.174 468.712 280.378 469.78 280.378 470.932V484H277.534V471.256C277.534 470.44 277.366 469.72 277.03 469.096C276.718 468.448 276.262 467.944 275.662 467.584C275.086 467.224 274.366 467.044 273.502 467.044C272.71 467.044 271.966 467.128 271.27 467.296C270.598 467.44 269.95 467.656 269.326 467.944C268.726 468.208 268.09 468.532 267.418 468.916V484H264.574ZM290.454 492.82C289.206 492.82 288.102 492.64 287.142 492.28C286.206 491.944 285.462 491.416 284.91 490.696C284.382 490 284.118 489.124 284.118 488.068V487.204C284.118 486.1 284.418 485.176 285.018 484.432C285.642 483.688 286.422 483.136 287.358 482.776C288.294 482.392 289.254 482.2 290.238 482.2L290.958 483.352C290.238 483.352 289.566 483.472 288.942 483.712C288.318 483.928 287.802 484.288 287.394 484.792C287.01 485.296 286.818 485.944 286.818 486.736V487.528C286.818 488.68 287.202 489.496 287.97 489.976C288.738 490.48 289.782 490.732 291.102 490.732H295.566C297.006 490.732 298.134 490.456 298.95 489.904C299.79 489.352 300.21 488.488 300.21 487.312V486.592C300.21 485.92 300.078 485.344 299.814 484.864C299.55 484.384 299.106 484.012 298.482 483.748C297.882 483.484 297.03 483.352 295.926 483.352H290.13C288.642 483.352 287.478 483.04 286.638 482.416C285.822 481.768 285.414 480.94 285.414 479.932C285.414 478.972 285.69 478.216 286.242 477.664C286.818 477.112 287.622 476.728 288.654 476.512C287.766 476.152 287.07 475.672 286.566 475.072C286.062 474.448 285.714 473.788 285.522 473.092C285.33 472.372 285.234 471.652 285.234 470.932C285.234 469.444 285.534 468.244 286.134 467.332C286.734 466.42 287.586 465.76 288.69 465.352C289.818 464.944 291.138 464.74 292.65 464.74H302.91V466.36L298.59 466.72C298.902 466.936 299.25 467.224 299.634 467.584C300.018 467.92 300.342 468.412 300.606 469.06C300.894 469.684 301.038 470.548 301.038 471.652C301.038 472.636 300.822 473.572 300.39 474.46C299.982 475.348 299.286 476.08 298.302 476.656C297.318 477.208 295.962 477.484 294.234 477.484H291.174C290.166 477.484 289.362 477.64 288.762 477.952C288.186 478.24 287.898 478.768 287.898 479.536C287.898 480.112 288.114 480.52 288.546 480.76C288.978 481 289.434 481.12 289.914 481.12H296.286C297.774 481.12 298.998 481.312 299.958 481.696C300.942 482.08 301.674 482.668 302.154 483.46C302.658 484.228 302.91 485.212 302.91 486.412V487.204C302.91 488.956 302.31 490.324 301.11 491.308C299.934 492.316 298.17 492.82 295.818 492.82H290.454ZM291.786 475.288H293.946C295.17 475.288 296.094 475.108 296.718 474.748C297.366 474.364 297.81 473.872 298.05 473.272C298.29 472.672 298.41 472.024 298.41 471.328C298.41 470.248 298.23 469.396 297.87 468.772C297.534 468.124 297.054 467.668 296.43 467.404C295.806 467.116 295.086 466.972 294.27 466.972H292.218C290.85 466.972 289.77 467.284 288.978 467.908C288.21 468.508 287.826 469.564 287.826 471.076C287.826 472.564 288.174 473.644 288.87 474.316C289.59 474.964 290.562 475.288 291.786 475.288ZM317.227 484V467.116H314.275V465.28L317.227 464.776V462.58C317.227 461.212 317.395 460.072 317.731 459.16C318.067 458.224 318.631 457.516 319.423 457.036C320.215 456.556 321.319 456.316 322.735 456.316C323.575 456.316 324.283 456.364 324.859 456.46C325.459 456.532 325.987 456.604 326.443 456.676V458.692H323.239C322.375 458.692 321.715 458.836 321.259 459.124C320.803 459.388 320.491 459.808 320.323 460.384C320.155 460.936 320.071 461.62 320.071 462.436V464.776H326.047V467.116H320.071V484H317.227ZM337.069 484.216C335.677 484.216 334.453 484.072 333.397 483.784C332.365 483.496 331.501 482.992 330.805 482.272C330.109 481.552 329.593 480.556 329.257 479.284C328.921 477.988 328.753 476.344 328.753 474.352C328.753 472.336 328.921 470.692 329.257 469.42C329.593 468.124 330.109 467.128 330.805 466.432C331.501 465.712 332.365 465.22 333.397 464.956C334.453 464.668 335.677 464.524 337.069 464.524C338.461 464.524 339.673 464.668 340.705 464.956C341.761 465.244 342.637 465.748 343.333 466.468C344.029 467.164 344.545 468.16 344.881 469.456C345.241 470.728 345.421 472.36 345.421 474.352C345.421 476.368 345.241 478.024 344.881 479.32C344.545 480.592 344.029 481.588 343.333 482.308C342.661 483.004 341.797 483.496 340.741 483.784C339.685 484.072 338.461 484.216 337.069 484.216ZM337.069 481.876C337.957 481.876 338.737 481.792 339.409 481.624C340.105 481.456 340.681 481.12 341.137 480.616C341.593 480.112 341.941 479.356 342.181 478.348C342.421 477.34 342.541 476.008 342.541 474.352C342.541 472.672 342.421 471.34 342.181 470.356C341.941 469.372 341.593 468.628 341.137 468.124C340.681 467.62 340.105 467.284 339.409 467.116C338.737 466.948 337.957 466.864 337.069 466.864C336.157 466.864 335.365 466.948 334.693 467.116C334.021 467.284 333.457 467.62 333.001 468.124C332.545 468.628 332.197 469.372 331.957 470.356C331.717 471.34 331.597 472.672 331.597 474.352C331.597 476.008 331.717 477.34 331.957 478.348C332.197 479.356 332.545 480.112 333.001 480.616C333.457 481.12 334.021 481.456 334.693 481.624C335.365 481.792 336.157 481.876 337.069 481.876ZM350.215 484V464.776H352.375L353.059 468.124C353.923 467.092 354.883 466.24 355.939 465.568C357.019 464.896 358.255 464.56 359.647 464.56C359.983 464.56 360.295 464.572 360.583 464.596C360.895 464.62 361.183 464.668 361.447 464.74V467.656C361.135 467.608 360.799 467.572 360.439 467.548C360.079 467.5 359.719 467.476 359.359 467.476C358.471 467.476 357.679 467.584 356.983 467.8C356.287 468.016 355.627 468.34 355.003 468.772C354.379 469.204 353.731 469.732 353.059 470.356V484H350.215ZM380.982 484.216C379.398 484.216 378.09 483.88 377.058 483.208C376.05 482.512 375.294 481.456 374.79 480.04C374.31 478.6 374.07 476.764 374.07 474.532C374.07 472.156 374.31 470.236 374.79 468.772C375.27 467.284 376.038 466.204 377.094 465.532C378.15 464.86 379.566 464.524 381.342 464.524C382.422 464.524 383.478 464.644 384.51 464.884C385.542 465.124 386.454 465.388 387.246 465.676V456.532H390.09V484H387.786L387.246 482.056C386.886 482.368 386.346 482.692 385.626 483.028C384.93 483.364 384.162 483.652 383.322 483.892C382.506 484.108 381.726 484.216 380.982 484.216ZM381.81 481.876C382.914 481.876 383.91 481.708 384.798 481.372C385.71 481.012 386.526 480.64 387.246 480.256V467.692C386.382 467.428 385.554 467.212 384.762 467.044C383.97 466.852 383.082 466.756 382.098 466.756C380.874 466.756 379.878 466.984 379.11 467.44C378.342 467.896 377.778 468.688 377.418 469.816C377.082 470.92 376.914 472.456 376.914 474.424C376.914 476.2 377.07 477.64 377.382 478.744C377.718 479.848 378.246 480.652 378.966 481.156C379.686 481.636 380.634 481.876 381.81 481.876ZM403.093 484.216C401.701 484.216 400.477 484.072 399.421 483.784C398.389 483.496 397.525 482.992 396.829 482.272C396.133 481.552 395.617 480.556 395.281 479.284C394.945 477.988 394.777 476.344 394.777 474.352C394.777 472.336 394.945 470.692 395.281 469.42C395.617 468.124 396.133 467.128 396.829 466.432C397.525 465.712 398.389 465.22 399.421 464.956C400.477 464.668 401.701 464.524 403.093 464.524C404.485 464.524 405.697 464.668 406.729 464.956C407.785 465.244 408.661 465.748 409.357 466.468C410.053 467.164 410.569 468.16 410.905 469.456C411.265 470.728 411.445 472.36 411.445 474.352C411.445 476.368 411.265 478.024 410.905 479.32C410.569 480.592 410.053 481.588 409.357 482.308C408.685 483.004 407.821 483.496 406.765 483.784C405.709 484.072 404.485 484.216 403.093 484.216ZM403.093 481.876C403.981 481.876 404.761 481.792 405.433 481.624C406.129 481.456 406.705 481.12 407.161 480.616C407.617 480.112 407.965 479.356 408.205 478.348C408.445 477.34 408.565 476.008 408.565 474.352C408.565 472.672 408.445 471.34 408.205 470.356C407.965 469.372 407.617 468.628 407.161 468.124C406.705 467.62 406.129 467.284 405.433 467.116C404.761 466.948 403.981 466.864 403.093 466.864C402.181 466.864 401.389 466.948 400.717 467.116C400.045 467.284 399.481 467.62 399.025 468.124C398.569 468.628 398.221 469.372 397.981 470.356C397.741 471.34 397.621 472.672 397.621 474.352C397.621 476.008 397.741 477.34 397.981 478.348C398.221 479.356 398.569 480.112 399.025 480.616C399.481 481.12 400.045 481.456 400.717 481.624C401.389 481.792 402.181 481.876 403.093 481.876ZM423.582 484.216C421.566 484.216 419.97 483.916 418.794 483.316C417.642 482.716 416.814 481.696 416.31 480.256C415.806 478.816 415.554 476.848 415.554 474.352C415.554 471.808 415.806 469.828 416.31 468.412C416.838 466.972 417.69 465.964 418.866 465.388C420.042 464.812 421.626 464.524 423.618 464.524C425.322 464.524 426.702 464.716 427.758 465.1C428.838 465.484 429.63 466.144 430.134 467.08C430.662 467.992 430.926 469.264 430.926 470.896C430.926 472.024 430.698 472.936 430.242 473.632C429.81 474.304 429.174 474.796 428.334 475.108C427.518 475.396 426.546 475.54 425.418 475.54H418.398C418.422 477.1 418.59 478.36 418.902 479.32C419.214 480.256 419.778 480.94 420.594 481.372C421.434 481.78 422.658 481.984 424.266 481.984H430.458V483.712C429.354 483.856 428.274 483.976 427.218 484.072C426.162 484.168 424.95 484.216 423.582 484.216ZM418.362 473.668H425.202C426.282 473.668 427.074 473.476 427.578 473.092C428.106 472.684 428.37 471.964 428.37 470.932C428.37 469.828 428.202 468.976 427.866 468.376C427.554 467.752 427.05 467.32 426.354 467.08C425.682 466.816 424.77 466.684 423.618 466.684C422.274 466.684 421.218 466.888 420.45 467.296C419.682 467.68 419.142 468.376 418.83 469.384C418.518 470.392 418.362 471.82 418.362 473.668ZM442.339 484.216C441.859 484.216 441.271 484.204 440.575 484.18C439.879 484.156 439.147 484.12 438.379 484.072C437.635 484.024 436.951 483.976 436.327 483.928C435.727 483.856 435.259 483.784 434.923 483.712V481.984H442.807C443.599 481.984 444.283 481.924 444.859 481.804C445.435 481.684 445.879 481.42 446.191 481.012C446.527 480.604 446.695 479.992 446.695 479.176V478.312C446.695 477.472 446.419 476.824 445.867 476.368C445.315 475.888 444.427 475.648 443.203 475.648H440.503C439.375 475.648 438.367 475.504 437.479 475.216C436.615 474.928 435.943 474.436 435.463 473.74C434.983 473.044 434.743 472.084 434.743 470.86V469.852C434.743 468.652 434.971 467.668 435.427 466.9C435.907 466.132 436.639 465.556 437.623 465.172C438.631 464.788 439.927 464.596 441.511 464.596C442.183 464.596 442.951 464.62 443.815 464.668C444.703 464.716 445.567 464.788 446.407 464.884C447.247 464.956 447.931 465.04 448.459 465.136V466.864H441.043C439.819 466.864 438.871 467.068 438.199 467.476C437.551 467.884 437.227 468.676 437.227 469.852V470.644C437.227 471.388 437.383 471.952 437.695 472.336C438.007 472.696 438.439 472.936 438.991 473.056C439.567 473.176 440.227 473.236 440.971 473.236H443.707C445.459 473.236 446.815 473.644 447.775 474.46C448.735 475.276 449.215 476.452 449.215 477.988V479.32C449.215 480.616 448.915 481.624 448.315 482.344C447.739 483.04 446.935 483.532 445.903 483.82C444.895 484.084 443.707 484.216 442.339 484.216ZM463.418 484V464.776H465.65L466.262 466.9C467.174 466.252 468.242 465.688 469.466 465.208C470.69 464.704 471.962 464.452 473.282 464.452C474.698 464.452 475.838 464.752 476.702 465.352C477.566 465.952 478.202 466.744 478.61 467.728C479.018 468.712 479.222 469.78 479.222 470.932V484H476.378V471.256C476.378 470.44 476.21 469.72 475.874 469.096C475.562 468.448 475.106 467.944 474.506 467.584C473.93 467.224 473.21 467.044 472.346 467.044C471.554 467.044 470.81 467.128 470.114 467.296C469.442 467.44 468.794 467.656 468.17 467.944C467.57 468.208 466.934 468.532 466.262 468.916V484H463.418ZM492.214 484.216C490.822 484.216 489.598 484.072 488.542 483.784C487.51 483.496 486.646 482.992 485.95 482.272C485.254 481.552 484.738 480.556 484.402 479.284C484.066 477.988 483.898 476.344 483.898 474.352C483.898 472.336 484.066 470.692 484.402 469.42C484.738 468.124 485.254 467.128 485.95 466.432C486.646 465.712 487.51 465.22 488.542 464.956C489.598 464.668 490.822 464.524 492.214 464.524C493.606 464.524 494.818 464.668 495.85 464.956C496.906 465.244 497.782 465.748 498.478 466.468C499.174 467.164 499.69 468.16 500.026 469.456C500.386 470.728 500.566 472.36 500.566 474.352C500.566 476.368 500.386 478.024 500.026 479.32C499.69 480.592 499.174 481.588 498.478 482.308C497.806 483.004 496.942 483.496 495.886 483.784C494.83 484.072 493.606 484.216 492.214 484.216ZM492.214 481.876C493.102 481.876 493.882 481.792 494.554 481.624C495.25 481.456 495.826 481.12 496.282 480.616C496.738 480.112 497.086 479.356 497.326 478.348C497.566 477.34 497.686 476.008 497.686 474.352C497.686 472.672 497.566 471.34 497.326 470.356C497.086 469.372 496.738 468.628 496.282 468.124C495.826 467.62 495.25 467.284 494.554 467.116C493.882 466.948 493.102 466.864 492.214 466.864C491.302 466.864 490.51 466.948 489.838 467.116C489.166 467.284 488.602 467.62 488.146 468.124C487.69 468.628 487.342 469.372 487.102 470.356C486.862 471.34 486.742 472.672 486.742 474.352C486.742 476.008 486.862 477.34 487.102 478.348C487.342 479.356 487.69 480.112 488.146 480.616C488.602 481.12 489.166 481.456 489.838 481.624C490.51 481.792 491.302 481.876 492.214 481.876ZM511.731 484C510.483 484 509.451 483.796 508.635 483.388C507.819 482.98 507.219 482.32 506.835 481.408C506.451 480.496 506.271 479.284 506.295 477.772L506.403 467.116H503.343V465.28L506.439 464.776L506.907 459.412H509.103V464.776H514.647V467.116H509.103V477.772C509.103 478.612 509.187 479.284 509.355 479.788C509.547 480.292 509.787 480.676 510.075 480.94C510.387 481.204 510.711 481.396 511.047 481.516C511.383 481.612 511.707 481.672 512.019 481.696L514.359 481.912V484H511.731ZM312.295 532.216C310.279 532.216 308.683 531.916 307.507 531.316C306.355 530.716 305.527 529.696 305.023 528.256C304.519 526.816 304.267 524.848 304.267 522.352C304.267 519.808 304.519 517.828 305.023 516.412C305.551 514.972 306.403 513.964 307.579 513.388C308.755 512.812 310.339 512.524 312.331 512.524C314.035 512.524 315.415 512.716 316.471 513.1C317.551 513.484 318.343 514.144 318.847 515.08C319.375 515.992 319.639 517.264 319.639 518.896C319.639 520.024 319.411 520.936 318.955 521.632C318.523 522.304 317.887 522.796 317.047 523.108C316.231 523.396 315.259 523.54 314.131 523.54H307.111C307.135 525.1 307.303 526.36 307.615 527.32C307.927 528.256 308.491 528.94 309.307 529.372C310.147 529.78 311.371 529.984 312.979 529.984H319.171V531.712C318.067 531.856 316.987 531.976 315.931 532.072C314.875 532.168 313.663 532.216 312.295 532.216ZM307.075 521.668H313.915C314.995 521.668 315.787 521.476 316.291 521.092C316.819 520.684 317.083 519.964 317.083 518.932C317.083 517.828 316.915 516.976 316.579 516.376C316.267 515.752 315.763 515.32 315.067 515.08C314.395 514.816 313.483 514.684 312.331 514.684C310.987 514.684 309.931 514.888 309.163 515.296C308.395 515.68 307.855 516.376 307.543 517.384C307.231 518.392 307.075 519.82 307.075 521.668ZM335.532 532L321.78 512.776H324.696L338.484 532H335.532ZM321.78 532L329.016 521.596L330.096 524.152L324.66 532H321.78ZM331.212 523.252L329.952 520.984L335.532 512.812L338.484 512.776L331.212 523.252ZM342.402 509.356C342.018 509.356 341.826 509.164 341.826 508.78V505.972C341.826 505.588 342.018 505.396 342.402 505.396H344.418C344.61 505.396 344.742 505.456 344.814 505.576C344.91 505.672 344.958 505.804 344.958 505.972V508.78C344.958 509.164 344.778 509.356 344.418 509.356H342.402ZM341.97 532V512.776H344.814V532H341.97ZM356.926 532.216C356.446 532.216 355.858 532.204 355.162 532.18C354.466 532.156 353.734 532.12 352.966 532.072C352.222 532.024 351.538 531.976 350.914 531.928C350.314 531.856 349.846 531.784 349.51 531.712V529.984H357.394C358.186 529.984 358.87 529.924 359.446 529.804C360.022 529.684 360.466 529.42 360.778 529.012C361.114 528.604 361.282 527.992 361.282 527.176V526.312C361.282 525.472 361.006 524.824 360.454 524.368C359.902 523.888 359.014 523.648 357.79 523.648H355.09C353.962 523.648 352.954 523.504 352.066 523.216C351.202 522.928 350.53 522.436 350.05 521.74C349.57 521.044 349.33 520.084 349.33 518.86V517.852C349.33 516.652 349.558 515.668 350.014 514.9C350.494 514.132 351.226 513.556 352.21 513.172C353.218 512.788 354.514 512.596 356.098 512.596C356.77 512.596 357.538 512.62 358.402 512.668C359.29 512.716 360.154 512.788 360.994 512.884C361.834 512.956 362.518 513.04 363.046 513.136V514.864H355.63C354.406 514.864 353.458 515.068 352.786 515.476C352.138 515.884 351.814 516.676 351.814 517.852V518.644C351.814 519.388 351.97 519.952 352.282 520.336C352.594 520.696 353.026 520.936 353.578 521.056C354.154 521.176 354.814 521.236 355.558 521.236H358.294C360.046 521.236 361.402 521.644 362.362 522.46C363.322 523.276 363.802 524.452 363.802 525.988V527.32C363.802 528.616 363.502 529.624 362.902 530.344C362.326 531.04 361.522 531.532 360.49 531.82C359.482 532.084 358.294 532.216 356.926 532.216ZM374.674 532C373.426 532 372.394 531.796 371.578 531.388C370.762 530.98 370.162 530.32 369.778 529.408C369.394 528.496 369.214 527.284 369.238 525.772L369.346 515.116H366.286V513.28L369.382 512.776L369.85 507.412H372.046V512.776H377.59V515.116H372.046V525.772C372.046 526.612 372.13 527.284 372.298 527.788C372.49 528.292 372.73 528.676 373.018 528.94C373.33 529.204 373.654 529.396 373.99 529.516C374.326 529.612 374.65 529.672 374.962 529.696L377.302 529.912V532H374.674ZM388.145 532.216C387.665 532.216 387.077 532.204 386.381 532.18C385.685 532.156 384.953 532.12 384.185 532.072C383.441 532.024 382.757 531.976 382.133 531.928C381.533 531.856 381.065 531.784 380.729 531.712V529.984H388.613C389.405 529.984 390.089 529.924 390.665 529.804C391.241 529.684 391.685 529.42 391.997 529.012C392.333 528.604 392.501 527.992 392.501 527.176V526.312C392.501 525.472 392.225 524.824 391.673 524.368C391.121 523.888 390.233 523.648 389.009 523.648H386.309C385.181 523.648 384.173 523.504 383.285 523.216C382.421 522.928 381.749 522.436 381.269 521.74C380.789 521.044 380.549 520.084 380.549 518.86V517.852C380.549 516.652 380.777 515.668 381.233 514.9C381.713 514.132 382.445 513.556 383.429 513.172C384.437 512.788 385.733 512.596 387.317 512.596C387.989 512.596 388.757 512.62 389.621 512.668C390.509 512.716 391.373 512.788 392.213 512.884C393.053 512.956 393.737 513.04 394.265 513.136V514.864H386.849C385.625 514.864 384.677 515.068 384.005 515.476C383.357 515.884 383.033 516.676 383.033 517.852V518.644C383.033 519.388 383.189 519.952 383.501 520.336C383.813 520.696 384.245 520.936 384.797 521.056C385.373 521.176 386.033 521.236 386.777 521.236H389.513C391.265 521.236 392.621 521.644 393.581 522.46C394.541 523.276 395.021 524.452 395.021 525.988V527.32C395.021 528.616 394.721 529.624 394.121 530.344C393.545 531.04 392.741 531.532 391.709 531.82C390.701 532.084 389.513 532.216 388.145 532.216Z" fill="black"/>
<line x1="683" y1="350.5" y2="350.5" stroke="black"/>
</g>
<defs>
<linearGradient id="paint0_linear_23_2" x1="350" y1="0" x2="350" y2="700" gradientUnits="userSpaceOnUse">
<stop offset="0.495" stop-color="#D9D9D9"/>
<stop offset="0.875" stop-color="#A5A5A5"/>
<stop offset="1" stop-color="#737373"/>
</linearGradient>
<clipPath id="clip0_23_2">
<rect width="699" height="700" fill="white"/>
</clipPath>
</defs>
</svg>
