<svg width="699" height="700" viewBox="0 0 699 700" fill="none" xmlns="http://www.w3.org/2000/svg">
<g clip-path="url(#clip0_23_2)">
<path d="M0.7071 350L350 0.7071L699.293 350L350 699.293L0.7071 350Z" fill="url(#paint0_linear_23_2)" stroke="black"/>
<path d="M264.074 262.144C263.498 262.144 262.886 262.096 262.238 262C261.59 261.88 260.978 261.652 260.402 261.316C259.826 260.98 259.358 260.476 258.998 259.804C258.638 259.108 258.458 258.172 258.458 256.996V240.832C258.458 239.8 258.602 238.948 258.89 238.276C259.202 237.58 259.61 237.04 260.114 236.656C260.618 236.248 261.182 235.96 261.806 235.792C262.43 235.6 263.054 235.504 263.678 235.504C265.166 235.528 266.546 235.564 267.818 235.612C269.09 235.636 270.29 235.672 271.418 235.72C272.57 235.744 273.686 235.78 274.766 235.828V238.132H264.398C263.462 238.132 262.718 238.384 262.166 238.888C261.614 239.392 261.338 240.196 261.338 241.3V247.564L273.182 247.744V249.94L261.338 250.12V256.348C261.338 257.236 261.482 257.908 261.77 258.364C262.082 258.82 262.49 259.12 262.994 259.264C263.498 259.408 264.014 259.48 264.542 259.48H274.766V261.784C273.662 261.856 272.498 261.916 271.274 261.964C270.074 262.012 268.862 262.048 267.638 262.072C266.438 262.096 265.25 262.12 264.074 262.144ZM279.586 262V235.504H290.026C290.89 235.504 291.73 235.612 292.546 235.828C293.362 236.02 294.094 236.392 294.742 236.944C295.414 237.496 295.942 238.288 296.326 239.32C296.71 240.328 296.902 241.66 296.902 243.316C296.902 244.756 296.746 245.944 296.434 246.88C296.122 247.792 295.714 248.524 295.21 249.076C294.706 249.604 294.154 250 293.554 250.264C292.978 250.504 292.414 250.672 291.862 250.768L297.298 262H294.382L289.234 251.164C288.85 251.164 288.37 251.152 287.794 251.128C287.218 251.104 286.606 251.092 285.958 251.092C285.31 251.092 284.674 251.08 284.05 251.056C283.45 251.032 282.922 251.02 282.466 251.02V262H279.586ZM282.466 248.824H289.594C290.218 248.824 290.794 248.752 291.322 248.608C291.85 248.464 292.318 248.2 292.726 247.816C293.134 247.408 293.458 246.844 293.698 246.124C293.938 245.404 294.058 244.468 294.058 243.316C294.058 242.212 293.938 241.324 293.698 240.652C293.458 239.956 293.122 239.428 292.69 239.068C292.282 238.684 291.814 238.432 291.286 238.312C290.758 238.168 290.194 238.096 289.594 238.096H282.466V248.824ZM301.489 262V235.504H311.929C312.793 235.504 313.633 235.612 314.449 235.828C315.265 236.02 315.997 236.392 316.645 236.944C317.317 237.496 317.845 238.288 318.229 239.32C318.613 240.328 318.805 241.66 318.805 243.316C318.805 244.756 318.649 245.944 318.337 246.88C318.025 247.792 317.617 248.524 317.113 249.076C316.609 249.604 316.057 250 315.457 250.264C314.881 250.504 314.317 250.672 313.765 250.768L319.201 262H316.285L311.137 251.164C310.753 251.164 310.273 251.152 309.697 251.128C309.121 251.104 308.509 251.092 307.861 251.092C307.213 251.092 306.577 251.08 305.953 251.056C305.353 251.032 304.825 251.02 304.369 251.02V262H301.489ZM304.369 248.824H311.497C312.121 248.824 312.697 248.752 313.225 248.608C313.753 248.464 314.221 248.2 314.629 247.816C315.037 247.408 315.361 246.844 315.601 246.124C315.841 245.404 315.961 244.468 315.961 243.316C315.961 242.212 315.841 241.324 315.601 240.652C315.361 239.956 315.025 239.428 314.593 239.068C314.185 238.684 313.717 238.432 313.189 238.312C312.661 238.168 312.097 238.096 311.497 238.096H304.369V248.824ZM332.967 262.216C331.263 262.216 329.763 262.06 328.467 261.748C327.195 261.412 326.127 260.788 325.263 259.876C324.423 258.964 323.787 257.62 323.355 255.844C322.947 254.068 322.743 251.74 322.743 248.86C322.743 245.98 322.959 243.652 323.391 241.876C323.823 240.076 324.471 238.708 325.335 237.772C326.199 236.812 327.267 236.164 328.539 235.828C329.811 235.468 331.287 235.288 332.967 235.288C334.695 235.288 336.195 235.468 337.467 235.828C338.763 236.164 339.831 236.812 340.671 237.772C341.535 238.708 342.171 240.076 342.579 241.876C342.987 243.652 343.191 245.98 343.191 248.86C343.191 251.74 342.975 254.068 342.543 255.844C342.135 257.62 341.499 258.964 340.635 259.876C339.795 260.788 338.739 261.412 337.467 261.748C336.195 262.06 334.695 262.216 332.967 262.216ZM332.967 259.66C334.311 259.66 335.451 259.528 336.387 259.264C337.323 259 338.079 258.496 338.655 257.752C339.255 256.984 339.687 255.892 339.951 254.476C340.215 253.06 340.347 251.188 340.347 248.86C340.347 246.436 340.203 244.492 339.915 243.028C339.651 241.564 339.219 240.46 338.619 239.716C338.043 238.972 337.287 238.48 336.351 238.24C335.439 238 334.311 237.88 332.967 237.88C331.719 237.88 330.627 238 329.691 238.24C328.779 238.48 328.011 238.972 327.387 239.716C326.787 240.46 326.331 241.564 326.019 243.028C325.731 244.492 325.587 246.436 325.587 248.86C325.587 251.188 325.707 253.06 325.947 254.476C326.211 255.892 326.631 256.984 327.207 257.752C327.783 258.496 328.539 259 329.475 259.264C330.435 259.528 331.599 259.66 332.967 259.66ZM348.071 262V235.504H358.511C359.375 235.504 360.215 235.612 361.031 235.828C361.847 236.02 362.579 236.392 363.227 236.944C363.899 237.496 364.427 238.288 364.811 239.32C365.195 240.328 365.387 241.66 365.387 243.316C365.387 244.756 365.231 245.944 364.919 246.88C364.607 247.792 364.199 248.524 363.695 249.076C363.191 249.604 362.639 250 362.039 250.264C361.463 250.504 360.899 250.672 360.347 250.768L365.783 262H362.867L357.719 251.164C357.335 251.164 356.855 251.152 356.279 251.128C355.703 251.104 355.091 251.092 354.443 251.092C353.795 251.092 353.159 251.08 352.535 251.056C351.935 251.032 351.407 251.02 350.951 251.02V262H348.071ZM350.951 248.824H358.079C358.703 248.824 359.279 248.752 359.807 248.608C360.335 248.464 360.803 248.2 361.211 247.816C361.619 247.408 361.943 246.844 362.183 246.124C362.423 245.404 362.543 244.468 362.543 243.316C362.543 242.212 362.423 241.324 362.183 240.652C361.943 239.956 361.607 239.428 361.175 239.068C360.767 238.684 360.299 238.432 359.771 238.312C359.243 238.168 358.679 238.096 358.079 238.096H350.951V248.824ZM390.98 261.964V255.232H378.488L377.84 253.684L387.812 235.504H390.764L381.152 252.784H390.98V245.728L391.592 243.28H393.824V252.784H397.46V254.764L393.824 255.232V261.964H390.98ZM407.638 262.072C406.366 262.072 405.226 261.856 404.218 261.424C403.234 260.968 402.454 260.284 401.878 259.372C401.326 258.436 401.05 257.236 401.05 255.772V241.732C401.05 240.316 401.326 239.14 401.878 238.204C402.454 237.244 403.234 236.524 404.218 236.044C405.226 235.54 406.366 235.288 407.638 235.288H412.786C414.274 235.288 415.486 235.564 416.422 236.116C417.358 236.644 418.042 237.388 418.474 238.348C418.93 239.308 419.158 240.436 419.158 241.732V255.772C419.158 257.956 418.57 259.552 417.394 260.56C416.242 261.568 414.706 262.072 412.786 262.072H407.638ZM408.178 259.516H412.138C413.602 259.516 414.658 259.156 415.306 258.436C415.954 257.692 416.278 256.684 416.278 255.412V241.948C416.278 240.58 415.93 239.56 415.234 238.888C414.562 238.216 413.566 237.88 412.246 237.88H408.106C406.81 237.88 405.79 238.24 405.046 238.96C404.302 239.656 403.93 240.652 403.93 241.948V255.412C403.93 256.78 404.302 257.812 405.046 258.508C405.814 259.18 406.858 259.516 408.178 259.516ZM435.98 261.964V255.232H423.488L422.84 253.684L432.812 235.504H435.764L426.152 252.784H435.98V245.728L436.592 243.28H438.824V252.784H442.46V254.764L438.824 255.232V261.964H435.98Z" fill="black"/>
<path d="M189.279 460.144C188.703 460.144 188.091 460.096 187.443 460C186.795 459.88 186.183 459.652 185.607 459.316C185.031 458.98 184.563 458.476 184.203 457.804C183.843 457.108 183.663 456.172 183.663 454.996V438.832C183.663 437.8 183.807 436.948 184.095 436.276C184.407 435.58 184.815 435.04 185.319 434.656C185.823 434.248 186.387 433.96 187.011 433.792C187.635 433.6 188.259 433.504 188.883 433.504C190.371 433.528 191.751 433.564 193.023 433.612C194.295 433.636 195.495 433.672 196.623 433.72C197.775 433.744 198.891 433.78 199.971 433.828V436.132H189.603C188.667 436.132 187.923 436.384 187.371 436.888C186.819 437.392 186.543 438.196 186.543 439.3V445.564L198.387 445.744V447.94L186.543 448.12V454.348C186.543 455.236 186.687 455.908 186.975 456.364C187.287 456.82 187.695 457.12 188.199 457.264C188.703 457.408 189.219 457.48 189.747 457.48H199.971V459.784C198.867 459.856 197.703 459.916 196.479 459.964C195.279 460.012 194.067 460.048 192.843 460.072C191.643 460.096 190.455 460.12 189.279 460.144ZM209.796 460.036C208.692 460.036 207.768 459.844 207.024 459.46C206.28 459.052 205.716 458.404 205.332 457.516C204.948 456.604 204.756 455.38 204.756 453.844V432.532H207.6V453.484C207.6 454.636 207.708 455.512 207.924 456.112C208.14 456.688 208.452 457.096 208.86 457.336C209.268 457.552 209.748 457.696 210.3 457.768L212.244 457.984V460.036H209.796ZM225.041 460V440.776H227.201L227.885 444.124C228.749 443.092 229.709 442.24 230.765 441.568C231.845 440.896 233.081 440.56 234.473 440.56C234.809 440.56 235.121 440.572 235.409 440.596C235.721 440.62 236.009 440.668 236.273 440.74V443.656C235.961 443.608 235.625 443.572 235.265 443.548C234.905 443.5 234.545 443.476 234.185 443.476C233.297 443.476 232.505 443.584 231.809 443.8C231.113 444.016 230.453 444.34 229.829 444.772C229.205 445.204 228.557 445.732 227.885 446.356V460H225.041ZM247.221 460.216C245.205 460.216 243.609 459.916 242.433 459.316C241.281 458.716 240.453 457.696 239.949 456.256C239.445 454.816 239.193 452.848 239.193 450.352C239.193 447.808 239.445 445.828 239.949 444.412C240.477 442.972 241.329 441.964 242.505 441.388C243.681 440.812 245.265 440.524 247.257 440.524C248.961 440.524 250.341 440.716 251.397 441.1C252.477 441.484 253.269 442.144 253.773 443.08C254.301 443.992 254.565 445.264 254.565 446.896C254.565 448.024 254.337 448.936 253.881 449.632C253.449 450.304 252.813 450.796 251.973 451.108C251.157 451.396 250.185 451.54 249.057 451.54H242.037C242.061 453.1 242.229 454.36 242.541 455.32C242.853 456.256 243.417 456.94 244.233 457.372C245.073 457.78 246.297 457.984 247.905 457.984H254.097V459.712C252.993 459.856 251.913 459.976 250.857 460.072C249.801 460.168 248.589 460.216 247.221 460.216ZM242.001 449.668H248.841C249.921 449.668 250.713 449.476 251.217 449.092C251.745 448.684 252.009 447.964 252.009 446.932C252.009 445.828 251.841 444.976 251.505 444.376C251.193 443.752 250.689 443.32 249.993 443.08C249.321 442.816 248.409 442.684 247.257 442.684C245.913 442.684 244.857 442.888 244.089 443.296C243.321 443.68 242.781 444.376 242.469 445.384C242.157 446.392 242.001 447.82 242.001 449.668ZM266.337 460.216C265.257 460.216 264.249 460.072 263.313 459.784C262.377 459.496 261.561 458.992 260.865 458.272C260.169 457.552 259.629 456.556 259.245 455.284C258.861 454.012 258.669 452.392 258.669 450.424C258.669 448.432 258.849 446.8 259.209 445.528C259.569 444.232 260.085 443.224 260.757 442.504C261.429 441.784 262.245 441.28 263.205 440.992C264.165 440.704 265.233 440.56 266.409 440.56C267.369 440.56 268.413 440.608 269.541 440.704C270.669 440.776 271.749 440.896 272.781 441.064V442.756H267.165C265.941 442.756 264.909 442.96 264.069 443.368C263.229 443.776 262.593 444.544 262.161 445.672C261.729 446.776 261.513 448.384 261.513 450.496C261.513 452.536 261.741 454.096 262.197 455.176C262.653 456.256 263.301 457 264.141 457.408C264.981 457.792 266.001 457.984 267.201 457.984H273.069V459.64C272.517 459.736 271.869 459.832 271.125 459.928C270.405 460.024 269.637 460.096 268.821 460.144C268.005 460.192 267.177 460.216 266.337 460.216ZM282.726 460.216C280.878 460.216 279.45 459.736 278.442 458.776C277.458 457.816 276.966 456.328 276.966 454.312V440.776H279.81V453.592C279.81 455.2 280.17 456.292 280.89 456.868C281.634 457.42 282.666 457.696 283.986 457.696C285.114 457.696 286.146 457.54 287.082 457.228C288.018 456.892 288.978 456.436 289.962 455.86V440.776H292.806V460H290.574L289.962 457.876C288.978 458.5 287.862 459.052 286.614 459.532C285.39 459.988 284.094 460.216 282.726 460.216ZM298.166 460V440.776H300.326L301.01 444.124C301.874 443.092 302.834 442.24 303.89 441.568C304.97 440.896 306.206 440.56 307.598 440.56C307.934 440.56 308.246 440.572 308.534 440.596C308.846 440.62 309.134 440.668 309.398 440.74V443.656C309.086 443.608 308.75 443.572 308.39 443.548C308.03 443.5 307.67 443.476 307.31 443.476C306.422 443.476 305.63 443.584 304.934 443.8C304.238 444.016 303.578 444.34 302.954 444.772C302.33 445.204 301.682 445.732 301.01 446.356V460H298.166ZM319.626 460.216C319.146 460.216 318.558 460.204 317.862 460.18C317.166 460.156 316.434 460.12 315.666 460.072C314.922 460.024 314.238 459.976 313.614 459.928C313.014 459.856 312.546 459.784 312.21 459.712V457.984H320.094C320.886 457.984 321.57 457.924 322.146 457.804C322.722 457.684 323.166 457.42 323.478 457.012C323.814 456.604 323.982 455.992 323.982 455.176V454.312C323.982 453.472 323.706 452.824 323.154 452.368C322.602 451.888 321.714 451.648 320.49 451.648H317.79C316.662 451.648 315.654 451.504 314.766 451.216C313.902 450.928 313.23 450.436 312.75 449.74C312.27 449.044 312.03 448.084 312.03 446.86V445.852C312.03 444.652 312.258 443.668 312.714 442.9C313.194 442.132 313.926 441.556 314.91 441.172C315.918 440.788 317.214 440.596 318.798 440.596C319.47 440.596 320.238 440.62 321.102 440.668C321.99 440.716 322.854 440.788 323.694 440.884C324.534 440.956 325.218 441.04 325.746 441.136V442.864H318.33C317.106 442.864 316.158 443.068 315.486 443.476C314.838 443.884 314.514 444.676 314.514 445.852V446.644C314.514 447.388 314.67 447.952 314.982 448.336C315.294 448.696 315.726 448.936 316.278 449.056C316.854 449.176 317.514 449.236 318.258 449.236H320.994C322.746 449.236 324.102 449.644 325.062 450.46C326.022 451.276 326.502 452.452 326.502 453.988V455.32C326.502 456.616 326.202 457.624 325.602 458.344C325.026 459.04 324.222 459.532 323.19 459.82C322.182 460.084 320.994 460.216 319.626 460.216ZM338.634 460.216C337.242 460.216 336.018 460.072 334.962 459.784C333.93 459.496 333.066 458.992 332.37 458.272C331.674 457.552 331.158 456.556 330.822 455.284C330.486 453.988 330.318 452.344 330.318 450.352C330.318 448.336 330.486 446.692 330.822 445.42C331.158 444.124 331.674 443.128 332.37 442.432C333.066 441.712 333.93 441.22 334.962 440.956C336.018 440.668 337.242 440.524 338.634 440.524C340.026 440.524 341.238 440.668 342.27 440.956C343.326 441.244 344.202 441.748 344.898 442.468C345.594 443.164 346.11 444.16 346.446 445.456C346.806 446.728 346.986 448.36 346.986 450.352C346.986 452.368 346.806 454.024 346.446 455.32C346.11 456.592 345.594 457.588 344.898 458.308C344.226 459.004 343.362 459.496 342.306 459.784C341.25 460.072 340.026 460.216 338.634 460.216ZM338.634 457.876C339.522 457.876 340.302 457.792 340.974 457.624C341.67 457.456 342.246 457.12 342.702 456.616C343.158 456.112 343.506 455.356 343.746 454.348C343.986 453.34 344.106 452.008 344.106 450.352C344.106 448.672 343.986 447.34 343.746 446.356C343.506 445.372 343.158 444.628 342.702 444.124C342.246 443.62 341.67 443.284 340.974 443.116C340.302 442.948 339.522 442.864 338.634 442.864C337.722 442.864 336.93 442.948 336.258 443.116C335.586 443.284 335.022 443.62 334.566 444.124C334.11 444.628 333.762 445.372 333.522 446.356C333.282 447.34 333.162 448.672 333.162 450.352C333.162 452.008 333.282 453.34 333.522 454.348C333.762 455.356 334.11 456.112 334.566 456.616C335.022 457.12 335.586 457.456 336.258 457.624C336.93 457.792 337.722 457.876 338.634 457.876ZM373.974 468.532V458.056C373.062 458.68 372.042 459.196 370.914 459.604C369.786 460.012 368.694 460.216 367.638 460.216C365.958 460.216 364.614 459.856 363.606 459.136C362.598 458.392 361.878 457.288 361.446 455.824C361.014 454.36 360.798 452.536 360.798 450.352C360.798 448.144 361.05 446.308 361.554 444.844C362.058 443.38 362.838 442.3 363.894 441.604C364.974 440.884 366.342 440.524 367.998 440.524C369.15 440.524 370.266 440.548 371.346 440.596C372.426 440.644 373.434 440.716 374.37 440.812C375.306 440.884 376.122 440.956 376.818 441.028V468.532H373.974ZM368.322 457.876C369.306 457.876 370.266 457.732 371.202 457.444C372.162 457.156 373.086 456.76 373.974 456.256V442.756H368.646C367.374 442.756 366.378 443.068 365.658 443.692C364.938 444.316 364.422 445.192 364.11 446.32C363.798 447.448 363.642 448.768 363.642 450.28C363.642 452.08 363.798 453.544 364.11 454.672C364.446 455.776 364.95 456.592 365.622 457.12C366.294 457.624 367.194 457.876 368.322 457.876ZM387.913 460.216C386.065 460.216 384.637 459.736 383.629 458.776C382.645 457.816 382.153 456.328 382.153 454.312V440.776H384.997V453.592C384.997 455.2 385.357 456.292 386.077 456.868C386.821 457.42 387.853 457.696 389.173 457.696C390.301 457.696 391.333 457.54 392.269 457.228C393.205 456.892 394.165 456.436 395.149 455.86V440.776H397.993V460H395.761L395.149 457.876C394.165 458.5 393.049 459.052 391.801 459.532C390.577 459.988 389.281 460.216 387.913 460.216ZM410.697 460.216C408.681 460.216 407.085 459.916 405.909 459.316C404.757 458.716 403.929 457.696 403.425 456.256C402.921 454.816 402.669 452.848 402.669 450.352C402.669 447.808 402.921 445.828 403.425 444.412C403.953 442.972 404.805 441.964 405.981 441.388C407.157 440.812 408.741 440.524 410.733 440.524C412.437 440.524 413.817 440.716 414.873 441.1C415.953 441.484 416.745 442.144 417.249 443.08C417.777 443.992 418.041 445.264 418.041 446.896C418.041 448.024 417.813 448.936 417.357 449.632C416.925 450.304 416.289 450.796 415.449 451.108C414.633 451.396 413.661 451.54 412.533 451.54H405.513C405.537 453.1 405.705 454.36 406.017 455.32C406.329 456.256 406.893 456.94 407.709 457.372C408.549 457.78 409.773 457.984 411.381 457.984H417.573V459.712C416.469 459.856 415.389 459.976 414.333 460.072C413.277 460.168 412.065 460.216 410.697 460.216ZM405.477 449.668H412.317C413.397 449.668 414.189 449.476 414.693 449.092C415.221 448.684 415.485 447.964 415.485 446.932C415.485 445.828 415.317 444.976 414.981 444.376C414.669 443.752 414.165 443.32 413.469 443.08C412.797 442.816 411.885 442.684 410.733 442.684C409.389 442.684 408.333 442.888 407.565 443.296C406.797 443.68 406.257 444.376 405.945 445.384C405.633 446.392 405.477 447.82 405.477 449.668ZM439.877 460.216C437.861 460.216 436.265 459.916 435.089 459.316C433.937 458.716 433.109 457.696 432.605 456.256C432.101 454.816 431.849 452.848 431.849 450.352C431.849 447.808 432.101 445.828 432.605 444.412C433.133 442.972 433.985 441.964 435.161 441.388C436.337 440.812 437.921 440.524 439.913 440.524C441.617 440.524 442.997 440.716 444.053 441.1C445.133 441.484 445.925 442.144 446.429 443.08C446.957 443.992 447.221 445.264 447.221 446.896C447.221 448.024 446.993 448.936 446.537 449.632C446.105 450.304 445.469 450.796 444.629 451.108C443.813 451.396 442.841 451.54 441.713 451.54H434.693C434.717 453.1 434.885 454.36 435.197 455.32C435.509 456.256 436.073 456.94 436.889 457.372C437.729 457.78 438.953 457.984 440.561 457.984H446.753V459.712C445.649 459.856 444.569 459.976 443.513 460.072C442.457 460.168 441.245 460.216 439.877 460.216ZM434.657 449.668H441.497C442.577 449.668 443.369 449.476 443.873 449.092C444.401 448.684 444.665 447.964 444.665 446.932C444.665 445.828 444.497 444.976 444.161 444.376C443.849 443.752 443.345 443.32 442.649 443.08C441.977 442.816 441.065 442.684 439.913 442.684C438.569 442.684 437.513 442.888 436.745 443.296C435.977 443.68 435.437 444.376 435.125 445.384C434.813 446.392 434.657 447.82 434.657 449.668ZM458.633 460.216C458.153 460.216 457.565 460.204 456.869 460.18C456.173 460.156 455.441 460.12 454.673 460.072C453.929 460.024 453.245 459.976 452.621 459.928C452.021 459.856 451.553 459.784 451.217 459.712V457.984H459.101C459.893 457.984 460.577 457.924 461.153 457.804C461.729 457.684 462.173 457.42 462.485 457.012C462.821 456.604 462.989 455.992 462.989 455.176V454.312C462.989 453.472 462.713 452.824 462.161 452.368C461.609 451.888 460.721 451.648 459.497 451.648H456.797C455.669 451.648 454.661 451.504 453.773 451.216C452.909 450.928 452.237 450.436 451.757 449.74C451.277 449.044 451.037 448.084 451.037 446.86V445.852C451.037 444.652 451.265 443.668 451.721 442.9C452.201 442.132 452.933 441.556 453.917 441.172C454.925 440.788 456.221 440.596 457.805 440.596C458.477 440.596 459.245 440.62 460.109 440.668C460.997 440.716 461.861 440.788 462.701 440.884C463.541 440.956 464.225 441.04 464.753 441.136V442.864H457.337C456.113 442.864 455.165 443.068 454.493 443.476C453.845 443.884 453.521 444.676 453.521 445.852V446.644C453.521 447.388 453.677 447.952 453.989 448.336C454.301 448.696 454.733 448.936 455.285 449.056C455.861 449.176 456.521 449.236 457.265 449.236H460.001C461.753 449.236 463.109 449.644 464.069 450.46C465.029 451.276 465.509 452.452 465.509 453.988V455.32C465.509 456.616 465.209 457.624 464.609 458.344C464.033 459.04 463.229 459.532 462.197 459.82C461.189 460.084 460.001 460.216 458.633 460.216ZM476.381 460C475.133 460 474.101 459.796 473.285 459.388C472.469 458.98 471.869 458.32 471.485 457.408C471.101 456.496 470.921 455.284 470.945 453.772L471.053 443.116H467.993V441.28L471.089 440.776L471.557 435.412H473.753V440.776H479.297V443.116H473.753V453.772C473.753 454.612 473.837 455.284 474.005 455.788C474.197 456.292 474.437 456.676 474.725 456.94C475.037 457.204 475.361 457.396 475.697 457.516C476.033 457.612 476.357 457.672 476.669 457.696L479.009 457.912V460H476.381ZM486.972 460.216C485.556 460.216 484.392 459.796 483.48 458.956C482.568 458.116 482.112 456.928 482.112 455.392V454.024C482.112 452.512 482.604 451.288 483.588 450.352C484.596 449.416 486.108 448.948 488.124 448.948H494.64V446.572C494.64 445.78 494.496 445.108 494.208 444.556C493.944 443.98 493.452 443.536 492.732 443.224C492.036 442.912 491.016 442.756 489.672 442.756H483.696V441.064C484.536 440.92 485.508 440.788 486.612 440.668C487.74 440.548 489.06 440.488 490.572 440.488C492.132 440.464 493.428 440.656 494.46 441.064C495.492 441.472 496.248 442.12 496.728 443.008C497.232 443.872 497.484 445.012 497.484 446.428V460H495.288L494.748 457.804C494.652 457.9 494.352 458.068 493.848 458.308C493.368 458.548 492.744 458.824 491.976 459.136C491.232 459.424 490.416 459.676 489.528 459.892C488.664 460.108 487.812 460.216 486.972 460.216ZM488.16 458.092C488.592 458.116 489.084 458.068 489.636 457.948C490.188 457.828 490.752 457.696 491.328 457.552C491.904 457.384 492.432 457.216 492.912 457.048C493.416 456.88 493.824 456.736 494.136 456.616C494.448 456.496 494.616 456.436 494.64 456.436V450.388L488.772 450.64C487.404 450.688 486.42 451.024 485.82 451.648C485.244 452.272 484.956 453.076 484.956 454.06V454.924C484.956 455.692 485.112 456.316 485.424 456.796C485.76 457.252 486.168 457.576 486.648 457.768C487.152 457.96 487.656 458.068 488.16 458.092ZM489.06 437.284L492.804 432.388H495.216L490.716 437.284H489.06ZM509.469 460.216C508.989 460.216 508.401 460.204 507.705 460.18C507.009 460.156 506.277 460.12 505.509 460.072C504.765 460.024 504.081 459.976 503.457 459.928C502.857 459.856 502.389 459.784 502.053 459.712V457.984H509.937C510.729 457.984 511.413 457.924 511.989 457.804C512.565 457.684 513.009 457.42 513.321 457.012C513.657 456.604 513.825 455.992 513.825 455.176V454.312C513.825 453.472 513.549 452.824 512.997 452.368C512.445 451.888 511.557 451.648 510.333 451.648H507.633C506.505 451.648 505.497 451.504 504.609 451.216C503.745 450.928 503.073 450.436 502.593 449.74C502.113 449.044 501.873 448.084 501.873 446.86V445.852C501.873 444.652 502.101 443.668 502.557 442.9C503.037 442.132 503.769 441.556 504.753 441.172C505.761 440.788 507.057 440.596 508.641 440.596C509.313 440.596 510.081 440.62 510.945 440.668C511.833 440.716 512.697 440.788 513.537 440.884C514.377 440.956 515.061 441.04 515.589 441.136V442.864H508.173C506.949 442.864 506.001 443.068 505.329 443.476C504.681 443.884 504.357 444.676 504.357 445.852V446.644C504.357 447.388 504.513 447.952 504.825 448.336C505.137 448.696 505.569 448.936 506.121 449.056C506.697 449.176 507.357 449.236 508.101 449.236H510.837C512.589 449.236 513.945 449.644 514.905 450.46C515.865 451.276 516.345 452.452 516.345 453.988V455.32C516.345 456.616 516.045 457.624 515.445 458.344C514.869 459.04 514.065 459.532 513.033 459.82C512.025 460.084 510.837 460.216 509.469 460.216ZM202.845 508.216C201.933 508.216 201.081 508.108 200.289 507.892C199.521 507.652 198.813 507.376 198.165 507.064C197.517 506.728 196.941 506.392 196.437 506.056L195.897 508H193.593V480.532H196.437V490.54C197.349 490.012 198.381 489.544 199.533 489.136C200.685 488.728 201.753 488.524 202.737 488.524C204.273 488.524 205.545 488.848 206.553 489.496C207.561 490.144 208.317 491.2 208.821 492.664C209.349 494.128 209.613 496.084 209.613 498.532C209.613 500.524 209.385 502.252 208.929 503.716C208.473 505.156 207.741 506.272 206.733 507.064C205.749 507.832 204.453 508.216 202.845 508.216ZM201.945 505.84C203.001 505.84 203.877 505.576 204.573 505.048C205.293 504.496 205.833 503.668 206.193 502.564C206.577 501.46 206.769 500.08 206.769 498.424C206.769 496.312 206.553 494.728 206.121 493.672C205.713 492.592 205.149 491.86 204.429 491.476C203.709 491.092 202.881 490.9 201.945 490.9C200.865 490.9 199.893 491.056 199.029 491.368C198.189 491.656 197.325 492.04 196.437 492.52V504.292C197.181 504.652 197.997 505 198.885 505.336C199.797 505.672 200.817 505.84 201.945 505.84ZM220.13 508.216C218.282 508.216 216.854 507.736 215.846 506.776C214.862 505.816 214.37 504.328 214.37 502.312V488.776H217.214V501.592C217.214 503.2 217.574 504.292 218.294 504.868C219.038 505.42 220.07 505.696 221.39 505.696C222.518 505.696 223.55 505.54 224.486 505.228C225.422 504.892 226.382 504.436 227.366 503.86V488.776H230.21V508H227.978L227.366 505.876C226.382 506.5 225.266 507.052 224.018 507.532C222.794 507.988 221.498 508.216 220.13 508.216ZM242.194 508.216C241.714 508.216 241.126 508.204 240.43 508.18C239.734 508.156 239.002 508.12 238.234 508.072C237.49 508.024 236.806 507.976 236.182 507.928C235.582 507.856 235.114 507.784 234.778 507.712V505.984H242.662C243.454 505.984 244.138 505.924 244.714 505.804C245.29 505.684 245.734 505.42 246.046 505.012C246.382 504.604 246.55 503.992 246.55 503.176V502.312C246.55 501.472 246.274 500.824 245.722 500.368C245.17 499.888 244.282 499.648 243.058 499.648H240.358C239.23 499.648 238.222 499.504 237.334 499.216C236.47 498.928 235.798 498.436 235.318 497.74C234.838 497.044 234.598 496.084 234.598 494.86V493.852C234.598 492.652 234.826 491.668 235.282 490.9C235.762 490.132 236.494 489.556 237.478 489.172C238.486 488.788 239.782 488.596 241.366 488.596C242.038 488.596 242.806 488.62 243.67 488.668C244.558 488.716 245.422 488.788 246.262 488.884C247.102 488.956 247.786 489.04 248.314 489.136V490.864H240.898C239.674 490.864 238.726 491.068 238.054 491.476C237.406 491.884 237.082 492.676 237.082 493.852V494.644C237.082 495.388 237.238 495.952 237.55 496.336C237.862 496.696 238.294 496.936 238.846 497.056C239.422 497.176 240.082 497.236 240.826 497.236H243.562C245.314 497.236 246.67 497.644 247.63 498.46C248.59 499.276 249.07 500.452 249.07 501.988V503.32C249.07 504.616 248.77 505.624 248.17 506.344C247.594 507.04 246.79 507.532 245.758 507.82C244.75 508.084 243.562 508.216 242.194 508.216ZM260.554 508.216C259.474 508.216 258.466 508.072 257.53 507.784C256.594 507.496 255.778 506.992 255.082 506.272C254.386 505.552 253.846 504.556 253.462 503.284C253.078 502.012 252.886 500.392 252.886 498.424C252.886 496.432 253.066 494.8 253.426 493.528C253.786 492.232 254.302 491.224 254.974 490.504C255.646 489.784 256.462 489.28 257.422 488.992C258.382 488.704 259.45 488.56 260.626 488.56C261.586 488.56 262.63 488.608 263.758 488.704C264.886 488.776 265.966 488.896 266.998 489.064V490.756H261.382C260.158 490.756 259.126 490.96 258.286 491.368C257.446 491.776 256.81 492.544 256.378 493.672C255.946 494.776 255.73 496.384 255.73 498.496C255.73 500.536 255.958 502.096 256.414 503.176C256.87 504.256 257.518 505 258.358 505.408C259.198 505.792 260.218 505.984 261.418 505.984H267.286V507.64C266.734 507.736 266.086 507.832 265.342 507.928C264.622 508.024 263.854 508.096 263.038 508.144C262.222 508.192 261.394 508.216 260.554 508.216ZM274.962 508.216C273.546 508.216 272.382 507.796 271.47 506.956C270.558 506.116 270.102 504.928 270.102 503.392V502.024C270.102 500.512 270.594 499.288 271.578 498.352C272.586 497.416 274.098 496.948 276.114 496.948H282.63V494.572C282.63 493.78 282.486 493.108 282.198 492.556C281.934 491.98 281.442 491.536 280.722 491.224C280.026 490.912 279.006 490.756 277.662 490.756H271.686V489.064C272.526 488.92 273.498 488.788 274.602 488.668C275.73 488.548 277.05 488.488 278.562 488.488C280.122 488.464 281.418 488.656 282.45 489.064C283.482 489.472 284.238 490.12 284.718 491.008C285.222 491.872 285.474 493.012 285.474 494.428V508H283.278L282.738 505.804C282.642 505.9 282.342 506.068 281.838 506.308C281.358 506.548 280.734 506.824 279.966 507.136C279.222 507.424 278.406 507.676 277.518 507.892C276.654 508.108 275.802 508.216 274.962 508.216ZM276.15 506.092C276.582 506.116 277.074 506.068 277.626 505.948C278.178 505.828 278.742 505.696 279.318 505.552C279.894 505.384 280.422 505.216 280.902 505.048C281.406 504.88 281.814 504.736 282.126 504.616C282.438 504.496 282.606 504.436 282.63 504.436V498.388L276.762 498.64C275.394 498.688 274.41 499.024 273.81 499.648C273.234 500.272 272.946 501.076 272.946 502.06V502.924C272.946 503.692 273.102 504.316 273.414 504.796C273.75 505.252 274.158 505.576 274.638 505.768C275.142 505.96 275.646 506.068 276.15 506.092ZM290.836 508V488.776H293.068L293.68 490.9C294.592 490.252 295.66 489.688 296.884 489.208C298.108 488.704 299.38 488.452 300.7 488.452C302.116 488.452 303.256 488.752 304.12 489.352C304.984 489.952 305.62 490.744 306.028 491.728C306.436 492.712 306.64 493.78 306.64 494.932V508H303.796V495.256C303.796 494.44 303.628 493.72 303.292 493.096C302.98 492.448 302.524 491.944 301.924 491.584C301.348 491.224 300.628 491.044 299.764 491.044C298.972 491.044 298.228 491.128 297.532 491.296C296.86 491.44 296.212 491.656 295.588 491.944C294.988 492.208 294.352 492.532 293.68 492.916V508H290.836ZM318.228 508.216C316.644 508.216 315.336 507.88 314.304 507.208C313.296 506.512 312.54 505.456 312.036 504.04C311.556 502.6 311.316 500.764 311.316 498.532C311.316 496.156 311.556 494.236 312.036 492.772C312.516 491.284 313.284 490.204 314.34 489.532C315.396 488.86 316.812 488.524 318.588 488.524C319.668 488.524 320.724 488.644 321.756 488.884C322.788 489.124 323.7 489.388 324.492 489.676V480.532H327.336V508H325.032L324.492 506.056C324.132 506.368 323.592 506.692 322.872 507.028C322.176 507.364 321.408 507.652 320.568 507.892C319.752 508.108 318.972 508.216 318.228 508.216ZM319.056 505.876C320.16 505.876 321.156 505.708 322.044 505.372C322.956 505.012 323.772 504.64 324.492 504.256V491.692C323.628 491.428 322.8 491.212 322.008 491.044C321.216 490.852 320.328 490.756 319.344 490.756C318.12 490.756 317.124 490.984 316.356 491.44C315.588 491.896 315.024 492.688 314.664 493.816C314.328 494.92 314.16 496.456 314.16 498.424C314.16 500.2 314.316 501.64 314.628 502.744C314.964 503.848 315.492 504.652 316.212 505.156C316.932 505.636 317.88 505.876 319.056 505.876ZM340.339 508.216C338.947 508.216 337.723 508.072 336.667 507.784C335.635 507.496 334.771 506.992 334.075 506.272C333.379 505.552 332.863 504.556 332.527 503.284C332.191 501.988 332.023 500.344 332.023 498.352C332.023 496.336 332.191 494.692 332.527 493.42C332.863 492.124 333.379 491.128 334.075 490.432C334.771 489.712 335.635 489.22 336.667 488.956C337.723 488.668 338.947 488.524 340.339 488.524C341.731 488.524 342.943 488.668 343.975 488.956C345.031 489.244 345.907 489.748 346.603 490.468C347.299 491.164 347.815 492.16 348.151 493.456C348.511 494.728 348.691 496.36 348.691 498.352C348.691 500.368 348.511 502.024 348.151 503.32C347.815 504.592 347.299 505.588 346.603 506.308C345.931 507.004 345.067 507.496 344.011 507.784C342.955 508.072 341.731 508.216 340.339 508.216ZM340.339 505.876C341.227 505.876 342.007 505.792 342.679 505.624C343.375 505.456 343.951 505.12 344.407 504.616C344.863 504.112 345.211 503.356 345.451 502.348C345.691 501.34 345.811 500.008 345.811 498.352C345.811 496.672 345.691 495.34 345.451 494.356C345.211 493.372 344.863 492.628 344.407 492.124C343.951 491.62 343.375 491.284 342.679 491.116C342.007 490.948 341.227 490.864 340.339 490.864C339.427 490.864 338.635 490.948 337.963 491.116C337.291 491.284 336.727 491.62 336.271 492.124C335.815 492.628 335.467 493.372 335.227 494.356C334.987 495.34 334.867 496.672 334.867 498.352C334.867 500.008 334.987 501.34 335.227 502.348C335.467 503.356 335.815 504.112 336.271 504.616C336.727 505.12 337.291 505.456 337.963 505.624C338.635 505.792 339.427 505.876 340.339 505.876ZM363.187 508V488.776H365.419L366.031 490.9C366.943 490.252 368.011 489.688 369.235 489.208C370.459 488.704 371.731 488.452 373.051 488.452C374.467 488.452 375.607 488.752 376.471 489.352C377.335 489.952 377.971 490.744 378.379 491.728C378.787 492.712 378.991 493.78 378.991 494.932V508H376.147V495.256C376.147 494.44 375.979 493.72 375.643 493.096C375.331 492.448 374.875 491.944 374.275 491.584C373.699 491.224 372.979 491.044 372.115 491.044C371.323 491.044 370.579 491.128 369.883 491.296C369.211 491.44 368.563 491.656 367.939 491.944C367.339 492.208 366.703 492.532 366.031 492.916V508H363.187ZM391.983 508.216C390.591 508.216 389.367 508.072 388.311 507.784C387.279 507.496 386.415 506.992 385.719 506.272C385.023 505.552 384.507 504.556 384.171 503.284C383.835 501.988 383.667 500.344 383.667 498.352C383.667 496.336 383.835 494.692 384.171 493.42C384.507 492.124 385.023 491.128 385.719 490.432C386.415 489.712 387.279 489.22 388.311 488.956C389.367 488.668 390.591 488.524 391.983 488.524C393.375 488.524 394.587 488.668 395.619 488.956C396.675 489.244 397.551 489.748 398.247 490.468C398.943 491.164 399.459 492.16 399.795 493.456C400.155 494.728 400.335 496.36 400.335 498.352C400.335 500.368 400.155 502.024 399.795 503.32C399.459 504.592 398.943 505.588 398.247 506.308C397.575 507.004 396.711 507.496 395.655 507.784C394.599 508.072 393.375 508.216 391.983 508.216ZM391.983 505.876C392.871 505.876 393.651 505.792 394.323 505.624C395.019 505.456 395.595 505.12 396.051 504.616C396.507 504.112 396.855 503.356 397.095 502.348C397.335 501.34 397.455 500.008 397.455 498.352C397.455 496.672 397.335 495.34 397.095 494.356C396.855 493.372 396.507 492.628 396.051 492.124C395.595 491.62 395.019 491.284 394.323 491.116C393.651 490.948 392.871 490.864 391.983 490.864C391.071 490.864 390.279 490.948 389.607 491.116C388.935 491.284 388.371 491.62 387.915 492.124C387.459 492.628 387.111 493.372 386.871 494.356C386.631 495.34 386.511 496.672 386.511 498.352C386.511 500.008 386.631 501.34 386.871 502.348C387.111 503.356 387.459 504.112 387.915 504.616C388.371 505.12 388.935 505.456 389.607 505.624C390.279 505.792 391.071 505.876 391.983 505.876ZM422.176 508.216C420.16 508.216 418.564 507.916 417.388 507.316C416.236 506.716 415.408 505.696 414.904 504.256C414.4 502.816 414.148 500.848 414.148 498.352C414.148 495.808 414.4 493.828 414.904 492.412C415.432 490.972 416.284 489.964 417.46 489.388C418.636 488.812 420.22 488.524 422.212 488.524C423.916 488.524 425.296 488.716 426.352 489.1C427.432 489.484 428.224 490.144 428.728 491.08C429.256 491.992 429.52 493.264 429.52 494.896C429.52 496.024 429.292 496.936 428.836 497.632C428.404 498.304 427.768 498.796 426.928 499.108C426.112 499.396 425.14 499.54 424.012 499.54H416.992C417.016 501.1 417.184 502.36 417.496 503.32C417.808 504.256 418.372 504.94 419.188 505.372C420.028 505.78 421.252 505.984 422.86 505.984H429.052V507.712C427.948 507.856 426.868 507.976 425.812 508.072C424.756 508.168 423.544 508.216 422.176 508.216ZM416.956 497.668H423.796C424.876 497.668 425.668 497.476 426.172 497.092C426.7 496.684 426.964 495.964 426.964 494.932C426.964 493.828 426.796 492.976 426.46 492.376C426.148 491.752 425.644 491.32 424.948 491.08C424.276 490.816 423.364 490.684 422.212 490.684C420.868 490.684 419.812 490.888 419.044 491.296C418.276 491.68 417.736 492.376 417.424 493.384C417.112 494.392 416.956 495.82 416.956 497.668ZM445.413 508L431.661 488.776H434.577L448.365 508H445.413ZM431.661 508L438.897 497.596L439.977 500.152L434.541 508H431.661ZM441.093 499.252L439.833 496.984L445.413 488.812L448.365 488.776L441.093 499.252ZM452.283 485.356C451.899 485.356 451.707 485.164 451.707 484.78V481.972C451.707 481.588 451.899 481.396 452.283 481.396H454.299C454.491 481.396 454.623 481.456 454.695 481.576C454.791 481.672 454.839 481.804 454.839 481.972V484.78C454.839 485.164 454.659 485.356 454.299 485.356H452.283ZM451.851 508V488.776H454.695V508H451.851ZM466.807 508.216C466.327 508.216 465.739 508.204 465.043 508.18C464.347 508.156 463.615 508.12 462.847 508.072C462.103 508.024 461.419 507.976 460.795 507.928C460.195 507.856 459.727 507.784 459.391 507.712V505.984H467.275C468.067 505.984 468.751 505.924 469.327 505.804C469.903 505.684 470.347 505.42 470.659 505.012C470.995 504.604 471.163 503.992 471.163 503.176V502.312C471.163 501.472 470.887 500.824 470.335 500.368C469.783 499.888 468.895 499.648 467.671 499.648H464.971C463.843 499.648 462.835 499.504 461.947 499.216C461.083 498.928 460.411 498.436 459.931 497.74C459.451 497.044 459.211 496.084 459.211 494.86V493.852C459.211 492.652 459.439 491.668 459.895 490.9C460.375 490.132 461.107 489.556 462.091 489.172C463.099 488.788 464.395 488.596 465.979 488.596C466.651 488.596 467.419 488.62 468.283 488.668C469.171 488.716 470.035 488.788 470.875 488.884C471.715 488.956 472.399 489.04 472.927 489.136V490.864H465.511C464.287 490.864 463.339 491.068 462.667 491.476C462.019 491.884 461.695 492.676 461.695 493.852V494.644C461.695 495.388 461.851 495.952 462.163 496.336C462.475 496.696 462.907 496.936 463.459 497.056C464.035 497.176 464.695 497.236 465.439 497.236H468.175C469.927 497.236 471.283 497.644 472.243 498.46C473.203 499.276 473.683 500.452 473.683 501.988V503.32C473.683 504.616 473.383 505.624 472.783 506.344C472.207 507.04 471.403 507.532 470.371 507.82C469.363 508.084 468.175 508.216 466.807 508.216ZM484.555 508C483.307 508 482.275 507.796 481.459 507.388C480.643 506.98 480.043 506.32 479.659 505.408C479.275 504.496 479.095 503.284 479.119 501.772L479.227 491.116H476.167V489.28L479.263 488.776L479.731 483.412H481.927V488.776H487.471V491.116H481.927V501.772C481.927 502.612 482.011 503.284 482.179 503.788C482.371 504.292 482.611 504.676 482.899 504.94C483.211 505.204 483.535 505.396 483.871 505.516C484.207 505.612 484.531 505.672 484.843 505.696L487.183 505.912V508H484.555ZM498.746 508.216C496.73 508.216 495.134 507.916 493.958 507.316C492.806 506.716 491.978 505.696 491.474 504.256C490.97 502.816 490.718 500.848 490.718 498.352C490.718 495.808 490.97 493.828 491.474 492.412C492.002 490.972 492.854 489.964 494.03 489.388C495.206 488.812 496.79 488.524 498.782 488.524C500.486 488.524 501.866 488.716 502.922 489.1C504.002 489.484 504.794 490.144 505.298 491.08C505.826 491.992 506.09 493.264 506.09 494.896C506.09 496.024 505.862 496.936 505.406 497.632C504.974 498.304 504.338 498.796 503.498 499.108C502.682 499.396 501.71 499.54 500.582 499.54H493.562C493.586 501.1 493.754 502.36 494.066 503.32C494.378 504.256 494.942 504.94 495.758 505.372C496.598 505.78 497.822 505.984 499.43 505.984H505.622V507.712C504.518 507.856 503.438 507.976 502.382 508.072C501.326 508.168 500.114 508.216 498.746 508.216ZM493.526 497.668H500.366C501.446 497.668 502.238 497.476 502.742 497.092C503.27 496.684 503.534 495.964 503.534 494.932C503.534 493.828 503.366 492.976 503.03 492.376C502.718 491.752 502.214 491.32 501.518 491.08C500.846 490.816 499.934 490.684 498.782 490.684C497.438 490.684 496.382 490.888 495.614 491.296C494.846 491.68 494.306 492.376 493.994 493.384C493.682 494.392 493.526 495.82 493.526 497.668Z" fill="black"/>
<line x1="683" y1="350.5" y2="350.5" stroke="black"/>
</g>
<defs>
<linearGradient id="paint0_linear_23_2" x1="350" y1="0" x2="350" y2="700" gradientUnits="userSpaceOnUse">
<stop offset="0.495" stop-color="#D9D9D9"/>
<stop offset="0.875" stop-color="#A5A5A5"/>
<stop offset="1" stop-color="#737373"/>
</linearGradient>
<clipPath id="clip0_23_2">
<rect width="699" height="700" fill="white"/>
</clipPath>
</defs>
</svg>
